G04 DipTrace 2.4.0.2*
%INBottomAssy.gbr*%
%MOMM*%
%FSLAX53Y53*%
G04*
G71*
G90*
G75*
G01*
%LNBotAssy*%
%LPD*%
G36*
X26434Y42453D2*
X26942D1*
Y42961D1*
X26434D1*
Y42453D1*
G37*
G36*
Y39913D2*
X26942D1*
Y40420D1*
X26434D1*
Y39913D1*
G37*
G36*
Y37372D2*
X26942D1*
Y37881D1*
X26434D1*
Y37372D1*
G37*
G36*
X51267Y45387D2*
X51775D1*
Y45895D1*
X51267D1*
Y45387D1*
G37*
G36*
Y42847D2*
X51775D1*
Y43355D1*
X51267D1*
Y42847D1*
G37*
G36*
Y40307D2*
X51775D1*
Y40815D1*
X51267D1*
Y40307D1*
G37*
G36*
Y37767D2*
X51775D1*
Y38275D1*
X51267D1*
Y37767D1*
G37*
G36*
Y35227D2*
X51775D1*
Y35735D1*
X51267D1*
Y35227D1*
G37*
G36*
Y32687D2*
X51775D1*
Y33195D1*
X51267D1*
Y32687D1*
G37*
G36*
Y30147D2*
X51775D1*
Y30655D1*
X51267D1*
Y30147D1*
G37*
G36*
Y47927D2*
X51775D1*
Y48435D1*
X51267D1*
Y47927D1*
G37*
G36*
X51767Y50613D2*
X51259D1*
Y51121D1*
X51767D1*
Y50613D1*
G37*
G36*
X39796Y50433D2*
X39288D1*
Y50941D1*
X39796D1*
Y50433D1*
G37*
G36*
X49184Y27896D2*
X48600D1*
Y28480D1*
X49184D1*
Y27896D1*
G37*
G36*
X46645D2*
X46060D1*
Y28480D1*
X46645D1*
Y27896D1*
G37*
G36*
X44105D2*
X43521D1*
Y28480D1*
X44105D1*
Y27896D1*
G37*
G36*
X41564D2*
X40980D1*
Y28480D1*
X41564D1*
Y27896D1*
G37*
G36*
X39025D2*
X38440D1*
Y28480D1*
X39025D1*
Y27896D1*
G37*
G36*
X36485D2*
X35901D1*
Y28480D1*
X36485D1*
Y27896D1*
G37*
M02*
