G04 DipTrace 2.4.0.2*
%INBottomMask.gbr*%
%MOMM*%
%ADD18C,1.88*%
%ADD19C,1.778*%
%ADD28C,1.604*%
%FSLAX53Y53*%
G04*
G71*
G90*
G75*
G01*
%LNBotMask*%
%LPD*%
D28*
X26530Y12889D3*
X27800Y11619D3*
G36*
X27575Y10349D2*
X26530Y9305D1*
X25486Y10349D1*
X26530Y11394D1*
X27575Y10349D1*
G37*
G36*
X37512Y7776D2*
X37980Y7309D1*
X38641D1*
X39108Y7776D1*
Y8437D1*
X38641Y8905D1*
X37980D1*
X37512Y8437D1*
Y7776D1*
G37*
G36*
X34972D2*
X35440Y7309D1*
X36101D1*
X36568Y7776D1*
Y8437D1*
X36101Y8905D1*
X35440D1*
X34972Y8437D1*
Y7776D1*
G37*
G36*
X32432D2*
X32899Y7309D1*
X33560D1*
X34028Y7776D1*
Y8437D1*
X33560Y8905D1*
X32899D1*
X32432Y8437D1*
Y7776D1*
G37*
G36*
X29892D2*
X30359Y7309D1*
X31020D1*
X31488Y7776D1*
Y8437D1*
X31020Y8905D1*
X30359D1*
X29892Y8437D1*
Y7776D1*
G37*
G36*
Y15396D2*
X30359Y14929D1*
X31020D1*
X31488Y15396D1*
Y16057D1*
X31020Y16525D1*
X30359D1*
X29892Y16057D1*
Y15396D1*
G37*
G36*
X32432D2*
X32899Y14929D1*
X33560D1*
X34028Y15396D1*
Y16057D1*
X33560Y16525D1*
X32899D1*
X32432Y16057D1*
Y15396D1*
G37*
G36*
X34972D2*
X35440Y14929D1*
X36101D1*
X36568Y15396D1*
Y16057D1*
X36101Y16525D1*
X35440D1*
X34972Y16057D1*
Y15396D1*
G37*
G36*
X37512D2*
X37980Y14929D1*
X38641D1*
X39108Y15396D1*
Y16057D1*
X38641Y16525D1*
X37980D1*
X37512Y16057D1*
Y15396D1*
G37*
D18*
X26815Y37627D3*
X26561Y40167D3*
X26815Y42707D3*
X13857Y14917D3*
X21477D3*
X59230Y11417D3*
X61770D3*
G36*
X50708Y29461D2*
X52588D1*
Y31341D1*
X50708D1*
Y29461D1*
G37*
D18*
X51394Y32941D3*
X51648Y35481D3*
X51394Y38021D3*
X51648Y40561D3*
X51394Y43101D3*
X51648Y45641D3*
X51394Y48181D3*
X61937Y6083D3*
X59397D3*
X66500Y15313D3*
Y17853D3*
X57127Y16417D3*
X59667D3*
X62207D3*
X46333Y6543D3*
Y9083D3*
Y11623D3*
X51333Y6543D3*
Y9083D3*
Y11623D3*
G36*
X73546Y37715D2*
X73262Y37765D1*
X73013Y37909D1*
X72828Y38129D1*
X72730Y38399D1*
X72729Y38686D1*
X72828Y38957D1*
X73012Y39177D1*
X73261Y39321D1*
X73544Y39371D1*
X75200D1*
X75484Y39322D1*
X75733Y39178D1*
X75918Y38958D1*
X76016Y38688D1*
X76017Y38400D1*
X75918Y38130D1*
X75734Y37909D1*
X75485Y37765D1*
X75202Y37715D1*
X73546D1*
G37*
G36*
X73791Y40153D2*
X73481Y40208D1*
X73201Y40369D1*
X72993Y40617D1*
X72882Y40921D1*
X72881Y41244D1*
X72992Y41548D1*
X73200Y41796D1*
X73480Y41958D1*
X73789Y42013D1*
X75463D1*
X75773Y41959D1*
X76053Y41797D1*
X76261Y41550D1*
X76372Y41246D1*
X76373Y40922D1*
X76262Y40618D1*
X76054Y40370D1*
X75774Y40208D1*
X75465Y40153D1*
X73791D1*
G37*
G36*
X73537Y42693D2*
X73227Y42748D1*
X72947Y42909D1*
X72739Y43157D1*
X72628Y43461D1*
X72627Y43784D1*
X72738Y44088D1*
X72946Y44336D1*
X73226Y44498D1*
X73535Y44553D1*
X75209D1*
X75519Y44499D1*
X75799Y44337D1*
X76007Y44090D1*
X76118Y43786D1*
X76119Y43462D1*
X76008Y43158D1*
X75800Y42910D1*
X75520Y42748D1*
X75211Y42693D1*
X73537D1*
G37*
G36*
X69046Y37715D2*
X68762Y37765D1*
X68513Y37909D1*
X68328Y38129D1*
X68230Y38399D1*
X68229Y38686D1*
X68328Y38957D1*
X68512Y39177D1*
X68761Y39321D1*
X69044Y39371D1*
X70700D1*
X70984Y39322D1*
X71233Y39178D1*
X71418Y38958D1*
X71516Y38688D1*
X71517Y38400D1*
X71418Y38130D1*
X71234Y37909D1*
X70985Y37765D1*
X70702Y37715D1*
X69046D1*
G37*
G36*
X69291Y40153D2*
X68981Y40208D1*
X68701Y40369D1*
X68493Y40617D1*
X68382Y40921D1*
X68381Y41244D1*
X68492Y41548D1*
X68700Y41796D1*
X68980Y41958D1*
X69289Y42013D1*
X70963D1*
X71273Y41959D1*
X71553Y41797D1*
X71761Y41550D1*
X71872Y41246D1*
X71873Y40922D1*
X71762Y40618D1*
X71554Y40370D1*
X71274Y40208D1*
X70965Y40153D1*
X69291D1*
G37*
G36*
X69037Y42693D2*
X68727Y42748D1*
X68447Y42909D1*
X68239Y43157D1*
X68128Y43461D1*
X68127Y43784D1*
X68238Y44088D1*
X68446Y44336D1*
X68726Y44498D1*
X69035Y44553D1*
X70709D1*
X71019Y44499D1*
X71299Y44337D1*
X71507Y44090D1*
X71618Y43786D1*
X71619Y43462D1*
X71508Y43158D1*
X71300Y42910D1*
X71020Y42748D1*
X70711Y42693D1*
X69037D1*
G37*
D18*
X51513Y50867D3*
X39542Y50687D3*
X48892Y28315D3*
X46352Y28061D3*
X43812Y28315D3*
X41272Y28061D3*
X38732Y28315D3*
X36192Y28061D3*
X71770Y53750D3*
X69230D3*
X74500Y46273D3*
Y53893D3*
G36*
X4155Y38871D2*
X4205Y39154D1*
X4349Y39403D1*
X4569Y39588D1*
X4839Y39687D1*
X5126D1*
X5397Y39589D1*
X5617Y39405D1*
X5761Y39156D1*
X5811Y38872D1*
Y37216D1*
X5762Y36933D1*
X5618Y36684D1*
X5398Y36499D1*
X5128Y36400D1*
X4840D1*
X4570Y36498D1*
X4349Y36683D1*
X4205Y36932D1*
X4155Y37215D1*
Y38871D1*
G37*
G36*
X6593Y38626D2*
X6648Y38936D1*
X6809Y39216D1*
X7057Y39424D1*
X7361Y39535D1*
X7684D1*
X7988Y39425D1*
X8236Y39217D1*
X8398Y38937D1*
X8453Y38627D1*
Y36953D1*
X8399Y36644D1*
X8237Y36363D1*
X7990Y36155D1*
X7686Y36044D1*
X7362D1*
X7058Y36154D1*
X6810Y36362D1*
X6648Y36642D1*
X6593Y36952D1*
Y38626D1*
G37*
G36*
X9133Y38880D2*
X9188Y39190D1*
X9349Y39470D1*
X9597Y39678D1*
X9901Y39789D1*
X10224D1*
X10528Y39679D1*
X10776Y39471D1*
X10938Y39191D1*
X10993Y38881D1*
Y37207D1*
X10939Y36898D1*
X10777Y36617D1*
X10530Y36409D1*
X10226Y36298D1*
X9902D1*
X9598Y36408D1*
X9350Y36616D1*
X9188Y36896D1*
X9133Y37206D1*
Y38880D1*
G37*
G36*
X11673Y38626D2*
X11728Y38936D1*
X11889Y39216D1*
X12137Y39424D1*
X12441Y39535D1*
X12764D1*
X13068Y39425D1*
X13316Y39217D1*
X13478Y38937D1*
X13533Y38627D1*
Y36953D1*
X13479Y36644D1*
X13317Y36363D1*
X13070Y36155D1*
X12766Y36044D1*
X12442D1*
X12138Y36154D1*
X11890Y36362D1*
X11728Y36642D1*
X11673Y36952D1*
Y38626D1*
G37*
G36*
X14213Y38880D2*
X14268Y39190D1*
X14429Y39470D1*
X14677Y39678D1*
X14981Y39789D1*
X15304D1*
X15608Y39679D1*
X15856Y39471D1*
X16018Y39191D1*
X16073Y38881D1*
Y37207D1*
X16019Y36898D1*
X15857Y36617D1*
X15610Y36409D1*
X15306Y36298D1*
X14982D1*
X14678Y36408D1*
X14430Y36616D1*
X14268Y36896D1*
X14213Y37206D1*
Y38880D1*
G37*
G36*
X16753Y38626D2*
X16808Y38936D1*
X16969Y39216D1*
X17217Y39424D1*
X17521Y39535D1*
X17844D1*
X18148Y39425D1*
X18396Y39217D1*
X18558Y38937D1*
X18613Y38627D1*
Y36953D1*
X18559Y36644D1*
X18397Y36363D1*
X18150Y36155D1*
X17846Y36044D1*
X17522D1*
X17218Y36154D1*
X16970Y36362D1*
X16808Y36642D1*
X16753Y36952D1*
Y38626D1*
G37*
D18*
X44310Y74250D3*
X36690D3*
X44477Y71250D3*
X36857D3*
D19*
X11583Y22917D3*
X18083D3*
D18*
X28570Y66750D3*
X31110D3*
X33650D3*
X36190D3*
X38730D3*
X41270D3*
X43810D3*
X46350D3*
X48890D3*
X51430D3*
X21667Y51313D3*
Y53853D3*
X36230Y31583D3*
X38770D3*
X38730Y62750D3*
X41270D3*
X59833Y23417D3*
X48833Y23750D3*
G36*
X57440Y34500D2*
X55560D1*
Y36380D1*
X57440D1*
Y34500D1*
G37*
D18*
X56500Y37980D3*
Y40520D3*
Y43060D3*
X42167Y18417D3*
Y10250D3*
X18667Y11083D3*
X55000Y48147D3*
Y50687D3*
X66167Y48750D3*
M02*
