G04 DipTrace 2.4.0.2*
%INBottom.gbr*%
%MOMM*%
%ADD15C,1.4*%
%ADD18C,1.88*%
%ADD19C,1.778*%
%FSLAX53Y53*%
G04*
G71*
G90*
G75*
G01*
%LNBottom*%
%LPD*%
D15*
X26530Y12889D3*
X27800Y11619D3*
G36*
X27430Y10349D2*
X26530Y9449D1*
X25630Y10349D1*
X26530Y11249D1*
X27430Y10349D1*
G37*
G36*
X37512Y7776D2*
X37980Y7309D1*
X38641D1*
X39108Y7776D1*
Y8437D1*
X38641Y8905D1*
X37980D1*
X37512Y8437D1*
Y7776D1*
G37*
G36*
X34972D2*
X35440Y7309D1*
X36101D1*
X36568Y7776D1*
Y8437D1*
X36101Y8905D1*
X35440D1*
X34972Y8437D1*
Y7776D1*
G37*
G36*
X32432D2*
X32899Y7309D1*
X33560D1*
X34028Y7776D1*
Y8437D1*
X33560Y8905D1*
X32899D1*
X32432Y8437D1*
Y7776D1*
G37*
G36*
X29892D2*
X30359Y7309D1*
X31020D1*
X31488Y7776D1*
Y8437D1*
X31020Y8905D1*
X30359D1*
X29892Y8437D1*
Y7776D1*
G37*
G36*
Y15396D2*
X30359Y14929D1*
X31020D1*
X31488Y15396D1*
Y16057D1*
X31020Y16525D1*
X30359D1*
X29892Y16057D1*
Y15396D1*
G37*
G36*
X32432D2*
X32899Y14929D1*
X33560D1*
X34028Y15396D1*
Y16057D1*
X33560Y16525D1*
X32899D1*
X32432Y16057D1*
Y15396D1*
G37*
G36*
X34972D2*
X35440Y14929D1*
X36101D1*
X36568Y15396D1*
Y16057D1*
X36101Y16525D1*
X35440D1*
X34972Y16057D1*
Y15396D1*
G37*
G36*
X37512D2*
X37980Y14929D1*
X38641D1*
X39108Y15396D1*
Y16057D1*
X38641Y16525D1*
X37980D1*
X37512Y16057D1*
Y15396D1*
G37*
D18*
X26815Y37627D3*
X26561Y40167D3*
X26815Y42707D3*
X13857Y14917D3*
X21477D3*
X59230Y11417D3*
X61770D3*
G36*
X50708Y29461D2*
X52588D1*
Y31341D1*
X50708D1*
Y29461D1*
G37*
D18*
X51394Y32941D3*
X51648Y35481D3*
X51394Y38021D3*
X51648Y40561D3*
X51394Y43101D3*
X51648Y45641D3*
X51394Y48181D3*
X61937Y6083D3*
X59397D3*
X66500Y15313D3*
Y17853D3*
X57127Y16417D3*
X59667D3*
X62207D3*
X46333Y6543D3*
Y9083D3*
Y11623D3*
X51333Y6543D3*
Y9083D3*
Y11623D3*
G36*
X73546Y37715D2*
X73262Y37765D1*
X73013Y37909D1*
X72828Y38129D1*
X72730Y38399D1*
X72729Y38686D1*
X72828Y38957D1*
X73012Y39177D1*
X73261Y39321D1*
X73544Y39371D1*
X75200D1*
X75484Y39322D1*
X75733Y39178D1*
X75918Y38958D1*
X76016Y38688D1*
X76017Y38400D1*
X75918Y38130D1*
X75734Y37909D1*
X75485Y37765D1*
X75202Y37715D1*
X73546D1*
G37*
G36*
X73800Y40255D2*
X73516Y40305D1*
X73267Y40449D1*
X73082Y40669D1*
X72984Y40939D1*
X72983Y41226D1*
X73082Y41497D1*
X73266Y41717D1*
X73515Y41861D1*
X73798Y41911D1*
X75454D1*
X75738Y41862D1*
X75987Y41718D1*
X76172Y41498D1*
X76270Y41228D1*
X76271Y40940D1*
X76172Y40670D1*
X75988Y40449D1*
X75739Y40305D1*
X75456Y40255D1*
X73800D1*
G37*
G36*
X73546Y42795D2*
X73262Y42845D1*
X73013Y42989D1*
X72828Y43209D1*
X72730Y43479D1*
X72729Y43766D1*
X72828Y44037D1*
X73012Y44257D1*
X73261Y44401D1*
X73544Y44451D1*
X75200D1*
X75484Y44402D1*
X75733Y44258D1*
X75918Y44038D1*
X76016Y43768D1*
X76017Y43480D1*
X75918Y43210D1*
X75734Y42989D1*
X75485Y42845D1*
X75202Y42795D1*
X73546D1*
G37*
G36*
X69046Y37715D2*
X68762Y37765D1*
X68513Y37909D1*
X68328Y38129D1*
X68230Y38399D1*
X68229Y38686D1*
X68328Y38957D1*
X68512Y39177D1*
X68761Y39321D1*
X69044Y39371D1*
X70700D1*
X70984Y39322D1*
X71233Y39178D1*
X71418Y38958D1*
X71516Y38688D1*
X71517Y38400D1*
X71418Y38130D1*
X71234Y37909D1*
X70985Y37765D1*
X70702Y37715D1*
X69046D1*
G37*
G36*
X69300Y40255D2*
X69016Y40305D1*
X68767Y40449D1*
X68582Y40669D1*
X68484Y40939D1*
X68483Y41226D1*
X68582Y41497D1*
X68766Y41717D1*
X69015Y41861D1*
X69298Y41911D1*
X70954D1*
X71238Y41862D1*
X71487Y41718D1*
X71672Y41498D1*
X71770Y41228D1*
X71771Y40940D1*
X71672Y40670D1*
X71488Y40449D1*
X71239Y40305D1*
X70956Y40255D1*
X69300D1*
G37*
G36*
X69046Y42795D2*
X68762Y42845D1*
X68513Y42989D1*
X68328Y43209D1*
X68230Y43479D1*
X68229Y43766D1*
X68328Y44037D1*
X68512Y44257D1*
X68761Y44401D1*
X69044Y44451D1*
X70700D1*
X70984Y44402D1*
X71233Y44258D1*
X71418Y44038D1*
X71516Y43768D1*
X71517Y43480D1*
X71418Y43210D1*
X71234Y42989D1*
X70985Y42845D1*
X70702Y42795D1*
X69046D1*
G37*
D18*
X51513Y50867D3*
X39542Y50687D3*
X48892Y28315D3*
X46352Y28061D3*
X43812Y28315D3*
X41272Y28061D3*
X38732Y28315D3*
X36192Y28061D3*
X71770Y53750D3*
X69230D3*
X74500Y46273D3*
Y53893D3*
G36*
X4155Y38871D2*
X4205Y39154D1*
X4349Y39403D1*
X4569Y39588D1*
X4839Y39687D1*
X5126D1*
X5397Y39589D1*
X5617Y39405D1*
X5761Y39156D1*
X5811Y38872D1*
Y37216D1*
X5762Y36933D1*
X5618Y36684D1*
X5398Y36499D1*
X5128Y36400D1*
X4840D1*
X4570Y36498D1*
X4349Y36683D1*
X4205Y36932D1*
X4155Y37215D1*
Y38871D1*
G37*
G36*
X6695Y38617D2*
X6745Y38900D1*
X6889Y39149D1*
X7109Y39334D1*
X7379Y39433D1*
X7666D1*
X7937Y39335D1*
X8157Y39151D1*
X8301Y38902D1*
X8351Y38618D1*
Y36962D1*
X8302Y36679D1*
X8158Y36430D1*
X7938Y36245D1*
X7668Y36146D1*
X7380D1*
X7110Y36244D1*
X6889Y36429D1*
X6745Y36678D1*
X6695Y36961D1*
Y38617D1*
G37*
G36*
X9235Y38871D2*
X9285Y39154D1*
X9429Y39403D1*
X9649Y39588D1*
X9919Y39687D1*
X10206D1*
X10477Y39589D1*
X10697Y39405D1*
X10841Y39156D1*
X10891Y38872D1*
Y37216D1*
X10842Y36933D1*
X10698Y36684D1*
X10478Y36499D1*
X10208Y36400D1*
X9920D1*
X9650Y36498D1*
X9429Y36683D1*
X9285Y36932D1*
X9235Y37215D1*
Y38871D1*
G37*
G36*
X11775Y38617D2*
X11825Y38900D1*
X11969Y39149D1*
X12189Y39334D1*
X12459Y39433D1*
X12746D1*
X13017Y39335D1*
X13237Y39151D1*
X13381Y38902D1*
X13431Y38618D1*
Y36962D1*
X13382Y36679D1*
X13238Y36430D1*
X13018Y36245D1*
X12748Y36146D1*
X12460D1*
X12190Y36244D1*
X11969Y36429D1*
X11825Y36678D1*
X11775Y36961D1*
Y38617D1*
G37*
G36*
X14315Y38871D2*
X14365Y39154D1*
X14509Y39403D1*
X14729Y39588D1*
X14999Y39687D1*
X15286D1*
X15557Y39589D1*
X15777Y39405D1*
X15921Y39156D1*
X15971Y38872D1*
Y37216D1*
X15922Y36933D1*
X15778Y36684D1*
X15558Y36499D1*
X15288Y36400D1*
X15000D1*
X14730Y36498D1*
X14509Y36683D1*
X14365Y36932D1*
X14315Y37215D1*
Y38871D1*
G37*
G36*
X16855Y38617D2*
X16905Y38900D1*
X17049Y39149D1*
X17269Y39334D1*
X17539Y39433D1*
X17826D1*
X18097Y39335D1*
X18317Y39151D1*
X18461Y38902D1*
X18511Y38618D1*
Y36962D1*
X18462Y36679D1*
X18318Y36430D1*
X18098Y36245D1*
X17828Y36146D1*
X17540D1*
X17270Y36244D1*
X17049Y36429D1*
X16905Y36678D1*
X16855Y36961D1*
Y38617D1*
G37*
D18*
X44310Y74250D3*
X36690D3*
X44477Y71250D3*
X36857D3*
D19*
X11583Y22917D3*
X18083D3*
D18*
X28570Y66750D3*
X31110D3*
X33650D3*
X36190D3*
X38730D3*
X41270D3*
X43810D3*
X46350D3*
X48890D3*
X51430D3*
X21667Y51313D3*
Y53853D3*
X36230Y31583D3*
X38770D3*
X38730Y62750D3*
X41270D3*
X59833Y23417D3*
X48833Y23750D3*
G36*
X57440Y34500D2*
X55560D1*
Y36380D1*
X57440D1*
Y34500D1*
G37*
D18*
X56500Y37980D3*
Y40520D3*
Y43060D3*
X42167Y18417D3*
Y10250D3*
X18667Y11083D3*
X55000Y48147D3*
Y50687D3*
X66167Y48750D3*
M02*
