G04 DipTrace 2.4.0.2*
%INTop.gbr*%
%MOMM*%
%ADD13C,0.4*%
%ADD15C,1.4*%
%ADD18C,1.88*%
%ADD19C,1.778*%
%FSLAX53Y53*%
G04*
G71*
G90*
G75*
G01*
%LNTop*%
%LPD*%
X7523Y37790D2*
D13*
Y50107D1*
X28667Y71250D1*
X36857D1*
X39030Y73423D1*
Y76583D1*
X53833D1*
X79019Y51397D1*
Y17936D1*
X63227Y2144D1*
X48107D1*
X44506Y5744D1*
Y15857D1*
X43707Y16657D1*
X41427D1*
X40627Y17457D1*
Y22250D1*
X41427Y23050D1*
X43812D1*
Y28315D1*
X33230Y15727D2*
Y22250D1*
X34030Y23050D1*
X39827D1*
X40627Y22250D1*
X41272Y28061D2*
X38933Y25721D1*
X31490D1*
X30690Y24921D1*
Y15727D1*
X4983Y38044D2*
X5126D1*
Y49543D1*
X29833Y74250D1*
X36690D1*
X30690Y15727D2*
Y14189D1*
X31490Y13389D1*
X42906D1*
X43707Y12589D1*
Y6709D1*
X42906Y5909D1*
X15008D1*
X4983Y15933D1*
Y38044D1*
X59667Y16417D2*
Y21710D1*
X59833Y21877D1*
X49973D1*
Y22610D1*
X48833Y23750D1*
X17683Y37790D2*
Y27076D1*
X16390Y25783D1*
Y21493D1*
X12317Y17420D1*
Y14177D1*
X13117Y13377D1*
X19937D1*
X21477Y14917D1*
X69230Y53750D2*
Y51627D1*
X68430Y50827D1*
X66360D1*
Y51223D1*
X60833Y56750D1*
Y28250D1*
X61568Y27515D1*
X65560D1*
Y21877D1*
X66500Y20937D1*
Y17853D1*
X59833Y21877D2*
Y23417D1*
X39708Y14189D2*
Y15727D1*
X38310D1*
X65560Y27515D2*
Y36617D1*
X67629Y38686D1*
X66829Y39486D1*
Y41226D1*
X67629Y42026D1*
Y41226D1*
X70127D1*
Y41083D1*
X67629Y42026D2*
Y43623D1*
X69873D1*
X67629Y38686D2*
X69873D1*
Y38543D1*
X60833Y28250D2*
X60899Y28315D1*
X48892D1*
X48833Y23750D2*
Y20710D1*
X48633Y20510D1*
Y3744D1*
X49127Y3250D1*
X63167D1*
X78000Y18083D1*
Y50246D1*
X77419Y50827D1*
X72153D1*
X69230Y53750D1*
X21477Y14917D2*
X25803D1*
X26530Y14189D1*
Y12889D1*
X44477Y71250D2*
X46930D1*
X51430Y66750D1*
X44310Y74250D2*
X44477Y74083D1*
Y71250D1*
X42167Y18417D2*
X45352D1*
Y24490D1*
X46152Y25290D1*
X61407D1*
X62207Y24490D1*
Y16417D1*
X46152Y25290D2*
X45352Y26090D1*
Y28061D1*
X46352D1*
X30690Y8107D2*
Y10250D1*
X42167D1*
X28570Y66750D2*
Y65210D1*
X34650D1*
X36190Y66750D1*
X61937Y6083D2*
Y8194D1*
X61770Y8360D1*
Y11417D1*
X74627Y41083D2*
Y41226D1*
X72371D1*
Y42152D1*
X72117Y42406D1*
Y43766D1*
Y45473D1*
X72917Y46273D1*
X74500D1*
X74373Y38543D2*
X74627D1*
Y41083D1*
X66500Y15313D2*
X74373Y23186D1*
Y38543D1*
X62207Y16417D2*
Y14713D1*
X62560D1*
X63360Y13913D1*
X64760Y15313D1*
X66500D1*
X18667Y11083D2*
X21849D1*
X22583Y10349D1*
X26530D1*
X11583Y22917D2*
Y19861D1*
X11517Y19794D1*
Y11883D1*
X12317Y11083D1*
X18667D1*
X15143Y38044D2*
X15000D1*
Y26334D1*
X11583Y22917D1*
X46352Y28061D2*
Y30086D1*
X43722Y32716D1*
Y51426D1*
X42922Y52226D1*
X32822D1*
X29369Y48774D1*
X18527D1*
X15143Y45390D1*
Y38044D1*
X61770Y11417D2*
Y13113D1*
X62570Y13913D1*
X63360D1*
X74373Y43623D2*
Y43766D1*
X72117D1*
X27800Y11619D2*
X27830Y11649D1*
Y17256D1*
Y29251D1*
X39542Y40963D1*
Y50687D1*
X27830Y17256D2*
X27030Y16457D1*
X15397D1*
X13857Y14917D1*
X48890Y66750D2*
Y50685D1*
X51394Y48181D1*
X54966D1*
X55000Y48147D1*
X51333Y9083D2*
X56397D1*
X59397Y6083D1*
X59230Y11417D2*
X57127D1*
Y12423D1*
X56327Y11623D1*
X51333D1*
X55000Y50687D2*
X51693D1*
X51513Y50867D1*
X57127Y12423D2*
Y16417D1*
X51333Y11623D2*
X49633Y9923D1*
Y5344D1*
X50433Y4543D1*
X63293D1*
X76871Y18121D1*
Y47813D1*
X76071Y48613D1*
X66637D1*
X66500Y48750D1*
X71770Y53750D2*
X71913Y53893D1*
X74500D1*
X38770Y31583D2*
X38732Y31546D1*
Y28315D1*
X12603Y37790D2*
Y44520D1*
X17857Y49774D1*
X19327D1*
Y58862D1*
X20127Y59662D1*
X38182D1*
X41270Y62750D1*
X10063Y38044D2*
Y50813D1*
X22000Y62750D1*
X38730D1*
X36192Y28061D2*
X29901D1*
X29101Y27261D1*
Y9667D1*
X28300Y8867D1*
X13383D1*
X9920Y12330D1*
Y38044D1*
X10063D1*
X36230Y31583D2*
X36192Y31546D1*
Y28061D1*
X26815Y42707D2*
X21083Y36974D1*
Y25916D1*
X18083Y22917D1*
X51648Y45641D2*
X46350Y50939D1*
Y66750D1*
X43810D2*
Y54653D1*
X43010Y53853D1*
X21667D1*
Y51313D2*
X20127Y52853D1*
Y56462D1*
X20927Y57262D1*
X42010D1*
X42810Y58062D1*
Y63490D1*
X42010Y64290D1*
X41190D1*
X38730Y66750D1*
X33650D2*
X36610Y69710D1*
X40847D1*
X41647Y70510D1*
Y74990D1*
X42447Y75790D1*
X44960D1*
X59333Y61417D1*
Y33994D1*
X55740Y30401D1*
X51648D1*
Y35481D2*
X51689Y35440D1*
X56500D1*
X51394Y38021D2*
X51435Y37980D1*
X56500D1*
X51648Y40561D2*
X51689Y40520D1*
X56500D1*
X51394Y43101D2*
X51435Y43060D1*
X56500D1*
D15*
X26530Y12889D3*
X27800Y11619D3*
G36*
X27430Y10349D2*
X26530Y9449D1*
X25630Y10349D1*
X26530Y11249D1*
X27430Y10349D1*
G37*
G36*
X37512Y7776D2*
X37980Y7309D1*
X38641D1*
X39108Y7776D1*
Y8437D1*
X38641Y8905D1*
X37980D1*
X37512Y8437D1*
Y7776D1*
G37*
G36*
X34972D2*
X35440Y7309D1*
X36101D1*
X36568Y7776D1*
Y8437D1*
X36101Y8905D1*
X35440D1*
X34972Y8437D1*
Y7776D1*
G37*
G36*
X32432D2*
X32899Y7309D1*
X33560D1*
X34028Y7776D1*
Y8437D1*
X33560Y8905D1*
X32899D1*
X32432Y8437D1*
Y7776D1*
G37*
G36*
X29892D2*
X30359Y7309D1*
X31020D1*
X31488Y7776D1*
Y8437D1*
X31020Y8905D1*
X30359D1*
X29892Y8437D1*
Y7776D1*
G37*
G36*
Y15396D2*
X30359Y14929D1*
X31020D1*
X31488Y15396D1*
Y16057D1*
X31020Y16525D1*
X30359D1*
X29892Y16057D1*
Y15396D1*
G37*
G36*
X32432D2*
X32899Y14929D1*
X33560D1*
X34028Y15396D1*
Y16057D1*
X33560Y16525D1*
X32899D1*
X32432Y16057D1*
Y15396D1*
G37*
G36*
X34972D2*
X35440Y14929D1*
X36101D1*
X36568Y15396D1*
Y16057D1*
X36101Y16525D1*
X35440D1*
X34972Y16057D1*
Y15396D1*
G37*
G36*
X37512D2*
X37980Y14929D1*
X38641D1*
X39108Y15396D1*
Y16057D1*
X38641Y16525D1*
X37980D1*
X37512Y16057D1*
Y15396D1*
G37*
D18*
X26815Y37627D3*
X26561Y40167D3*
X26815Y42707D3*
X13857Y14917D3*
X21477D3*
X59230Y11417D3*
X61770D3*
G36*
X50708Y29461D2*
X52588D1*
Y31341D1*
X50708D1*
Y29461D1*
G37*
D18*
X51394Y32941D3*
X51648Y35481D3*
X51394Y38021D3*
X51648Y40561D3*
X51394Y43101D3*
X51648Y45641D3*
X51394Y48181D3*
X61937Y6083D3*
X59397D3*
X66500Y15313D3*
Y17853D3*
X57127Y16417D3*
X59667D3*
X62207D3*
X46333Y6543D3*
Y9083D3*
Y11623D3*
X51333Y6543D3*
Y9083D3*
Y11623D3*
G36*
X73546Y37715D2*
X73262Y37765D1*
X73013Y37909D1*
X72828Y38129D1*
X72730Y38399D1*
X72729Y38686D1*
X72828Y38957D1*
X73012Y39177D1*
X73261Y39321D1*
X73544Y39371D1*
X75200D1*
X75484Y39322D1*
X75733Y39178D1*
X75918Y38958D1*
X76016Y38688D1*
X76017Y38400D1*
X75918Y38130D1*
X75734Y37909D1*
X75485Y37765D1*
X75202Y37715D1*
X73546D1*
G37*
G36*
X73800Y40255D2*
X73516Y40305D1*
X73267Y40449D1*
X73082Y40669D1*
X72984Y40939D1*
X72983Y41226D1*
X73082Y41497D1*
X73266Y41717D1*
X73515Y41861D1*
X73798Y41911D1*
X75454D1*
X75738Y41862D1*
X75987Y41718D1*
X76172Y41498D1*
X76270Y41228D1*
X76271Y40940D1*
X76172Y40670D1*
X75988Y40449D1*
X75739Y40305D1*
X75456Y40255D1*
X73800D1*
G37*
G36*
X73546Y42795D2*
X73262Y42845D1*
X73013Y42989D1*
X72828Y43209D1*
X72730Y43479D1*
X72729Y43766D1*
X72828Y44037D1*
X73012Y44257D1*
X73261Y44401D1*
X73544Y44451D1*
X75200D1*
X75484Y44402D1*
X75733Y44258D1*
X75918Y44038D1*
X76016Y43768D1*
X76017Y43480D1*
X75918Y43210D1*
X75734Y42989D1*
X75485Y42845D1*
X75202Y42795D1*
X73546D1*
G37*
G36*
X69046Y37715D2*
X68762Y37765D1*
X68513Y37909D1*
X68328Y38129D1*
X68230Y38399D1*
X68229Y38686D1*
X68328Y38957D1*
X68512Y39177D1*
X68761Y39321D1*
X69044Y39371D1*
X70700D1*
X70984Y39322D1*
X71233Y39178D1*
X71418Y38958D1*
X71516Y38688D1*
X71517Y38400D1*
X71418Y38130D1*
X71234Y37909D1*
X70985Y37765D1*
X70702Y37715D1*
X69046D1*
G37*
G36*
X69300Y40255D2*
X69016Y40305D1*
X68767Y40449D1*
X68582Y40669D1*
X68484Y40939D1*
X68483Y41226D1*
X68582Y41497D1*
X68766Y41717D1*
X69015Y41861D1*
X69298Y41911D1*
X70954D1*
X71238Y41862D1*
X71487Y41718D1*
X71672Y41498D1*
X71770Y41228D1*
X71771Y40940D1*
X71672Y40670D1*
X71488Y40449D1*
X71239Y40305D1*
X70956Y40255D1*
X69300D1*
G37*
G36*
X69046Y42795D2*
X68762Y42845D1*
X68513Y42989D1*
X68328Y43209D1*
X68230Y43479D1*
X68229Y43766D1*
X68328Y44037D1*
X68512Y44257D1*
X68761Y44401D1*
X69044Y44451D1*
X70700D1*
X70984Y44402D1*
X71233Y44258D1*
X71418Y44038D1*
X71516Y43768D1*
X71517Y43480D1*
X71418Y43210D1*
X71234Y42989D1*
X70985Y42845D1*
X70702Y42795D1*
X69046D1*
G37*
D18*
X51513Y50867D3*
X39542Y50687D3*
X48892Y28315D3*
X46352Y28061D3*
X43812Y28315D3*
X41272Y28061D3*
X38732Y28315D3*
X36192Y28061D3*
X71770Y53750D3*
X69230D3*
X74500Y46273D3*
Y53893D3*
G36*
X4155Y38871D2*
X4205Y39154D1*
X4349Y39403D1*
X4569Y39588D1*
X4839Y39687D1*
X5126D1*
X5397Y39589D1*
X5617Y39405D1*
X5761Y39156D1*
X5811Y38872D1*
Y37216D1*
X5762Y36933D1*
X5618Y36684D1*
X5398Y36499D1*
X5128Y36400D1*
X4840D1*
X4570Y36498D1*
X4349Y36683D1*
X4205Y36932D1*
X4155Y37215D1*
Y38871D1*
G37*
G36*
X6695Y38617D2*
X6745Y38900D1*
X6889Y39149D1*
X7109Y39334D1*
X7379Y39433D1*
X7666D1*
X7937Y39335D1*
X8157Y39151D1*
X8301Y38902D1*
X8351Y38618D1*
Y36962D1*
X8302Y36679D1*
X8158Y36430D1*
X7938Y36245D1*
X7668Y36146D1*
X7380D1*
X7110Y36244D1*
X6889Y36429D1*
X6745Y36678D1*
X6695Y36961D1*
Y38617D1*
G37*
G36*
X9235Y38871D2*
X9285Y39154D1*
X9429Y39403D1*
X9649Y39588D1*
X9919Y39687D1*
X10206D1*
X10477Y39589D1*
X10697Y39405D1*
X10841Y39156D1*
X10891Y38872D1*
Y37216D1*
X10842Y36933D1*
X10698Y36684D1*
X10478Y36499D1*
X10208Y36400D1*
X9920D1*
X9650Y36498D1*
X9429Y36683D1*
X9285Y36932D1*
X9235Y37215D1*
Y38871D1*
G37*
G36*
X11775Y38617D2*
X11825Y38900D1*
X11969Y39149D1*
X12189Y39334D1*
X12459Y39433D1*
X12746D1*
X13017Y39335D1*
X13237Y39151D1*
X13381Y38902D1*
X13431Y38618D1*
Y36962D1*
X13382Y36679D1*
X13238Y36430D1*
X13018Y36245D1*
X12748Y36146D1*
X12460D1*
X12190Y36244D1*
X11969Y36429D1*
X11825Y36678D1*
X11775Y36961D1*
Y38617D1*
G37*
G36*
X14315Y38871D2*
X14365Y39154D1*
X14509Y39403D1*
X14729Y39588D1*
X14999Y39687D1*
X15286D1*
X15557Y39589D1*
X15777Y39405D1*
X15921Y39156D1*
X15971Y38872D1*
Y37216D1*
X15922Y36933D1*
X15778Y36684D1*
X15558Y36499D1*
X15288Y36400D1*
X15000D1*
X14730Y36498D1*
X14509Y36683D1*
X14365Y36932D1*
X14315Y37215D1*
Y38871D1*
G37*
G36*
X16855Y38617D2*
X16905Y38900D1*
X17049Y39149D1*
X17269Y39334D1*
X17539Y39433D1*
X17826D1*
X18097Y39335D1*
X18317Y39151D1*
X18461Y38902D1*
X18511Y38618D1*
Y36962D1*
X18462Y36679D1*
X18318Y36430D1*
X18098Y36245D1*
X17828Y36146D1*
X17540D1*
X17270Y36244D1*
X17049Y36429D1*
X16905Y36678D1*
X16855Y36961D1*
Y38617D1*
G37*
D18*
X44310Y74250D3*
X36690D3*
X44477Y71250D3*
X36857D3*
D19*
X11583Y22917D3*
X18083D3*
D18*
X28570Y66750D3*
X31110D3*
X33650D3*
X36190D3*
X38730D3*
X41270D3*
X43810D3*
X46350D3*
X48890D3*
X51430D3*
X21667Y51313D3*
Y53853D3*
X36230Y31583D3*
X38770D3*
X38730Y62750D3*
X41270D3*
X59833Y23417D3*
X48833Y23750D3*
G36*
X57440Y34500D2*
X55560D1*
Y36380D1*
X57440D1*
Y34500D1*
G37*
D18*
X56500Y37980D3*
Y40520D3*
Y43060D3*
X42167Y18417D3*
Y10250D3*
X18667Y11083D3*
X55000Y48147D3*
Y50687D3*
X66167Y48750D3*
M02*
