G04 DipTrace 2.4.0.2*
%INTopAssy.gbr*%
%MOMM*%
%ADD14C,0.033*%
%ADD16C,0.203*%
%ADD17C,0.254*%
%FSLAX53Y53*%
G04*
G71*
G90*
G75*
G01*
%LNTopAssy*%
%LPD*%
G36*
X61516Y11163D2*
X62024D1*
Y11671D1*
X61516D1*
Y11163D1*
G37*
G36*
X58976D2*
X59484D1*
Y11671D1*
X58976D1*
Y11163D1*
G37*
G36*
X59651Y6337D2*
X59143D1*
Y5829D1*
X59651D1*
Y6337D1*
G37*
G36*
X62191D2*
X61683D1*
Y5829D1*
X62191D1*
Y6337D1*
G37*
G36*
X66754Y17599D2*
X66246D1*
Y18107D1*
X66754D1*
Y17599D1*
G37*
G36*
Y15059D2*
X66246D1*
Y15567D1*
X66754D1*
Y15059D1*
G37*
G36*
X61953Y16163D2*
X62461D1*
Y16671D1*
X61953D1*
Y16163D1*
G37*
G36*
X59413D2*
X59920D1*
Y16671D1*
X59413D1*
Y16163D1*
G37*
G36*
X56872D2*
X57381D1*
Y16671D1*
X56872D1*
Y16163D1*
G37*
G36*
X46587Y11369D2*
X46079D1*
Y11878D1*
X46587D1*
Y11369D1*
G37*
G36*
Y8830D2*
X46079D1*
Y9337D1*
X46587D1*
Y8830D1*
G37*
G36*
Y6289D2*
X46079D1*
Y6797D1*
X46587D1*
Y6289D1*
G37*
G36*
X51587Y11369D2*
X51079D1*
Y11878D1*
X51587D1*
Y11369D1*
G37*
G36*
Y8830D2*
X51079D1*
Y9337D1*
X51587D1*
Y8830D1*
G37*
G36*
Y6289D2*
X51079D1*
Y6797D1*
X51587D1*
Y6289D1*
G37*
G36*
X74792Y38251D2*
X74208D1*
Y38835D1*
X74792D1*
Y38251D1*
G37*
G36*
Y40791D2*
X74208D1*
Y41375D1*
X74792D1*
Y40791D1*
G37*
G36*
Y43331D2*
X74208D1*
Y43916D1*
X74792D1*
Y43331D1*
G37*
G36*
X70292Y38251D2*
X69708D1*
Y38835D1*
X70292D1*
Y38251D1*
G37*
G36*
Y40791D2*
X69708D1*
Y41375D1*
X70292D1*
Y40791D1*
G37*
G36*
Y43331D2*
X69708D1*
Y43916D1*
X70292D1*
Y43331D1*
G37*
X68925Y55020D2*
D17*
Y52480D1*
X72532Y53750D2*
G02X72289Y52786I-2039J2D01*
G01*
X72532Y53750D2*
G03X72231Y54815I-2035J-1D01*
G01*
G36*
X4692Y37625D2*
X5275D1*
Y38209D1*
X4692D1*
Y37625D1*
G37*
G36*
X7231D2*
X7816D1*
Y38209D1*
X7231D1*
Y37625D1*
G37*
G36*
X9771D2*
X10355D1*
Y38209D1*
X9771D1*
Y37625D1*
G37*
G36*
X12312Y38209D2*
X12895D1*
Y37625D1*
X12312D1*
Y38209D1*
G37*
G36*
X14851Y37625D2*
X15436D1*
Y38209D1*
X14851D1*
Y37625D1*
G37*
G36*
X17391D2*
X17975D1*
Y38209D1*
X17391D1*
Y37625D1*
G37*
X13564Y22917D2*
D16*
G02X13564Y22917I1270J0D01*
G01*
G36*
X43556Y66496D2*
X44064D1*
Y67004D1*
X43556D1*
Y66496D1*
G37*
G36*
X41016D2*
X41524D1*
Y67004D1*
X41016D1*
Y66496D1*
G37*
G36*
X38476D2*
X38984D1*
Y67004D1*
X38476D1*
Y66496D1*
G37*
G36*
X35936D2*
X36444D1*
Y67004D1*
X35936D1*
Y66496D1*
G37*
G36*
X33396D2*
X33904D1*
Y67004D1*
X33396D1*
Y66496D1*
G37*
G36*
X30856D2*
X31364D1*
Y67004D1*
X30856D1*
Y66496D1*
G37*
G36*
X28316D2*
X28824D1*
Y67004D1*
X28316D1*
Y66496D1*
G37*
G36*
X46096D2*
X46604D1*
Y67004D1*
X46096D1*
Y66496D1*
G37*
G36*
X48636D2*
X49144D1*
Y67004D1*
X48636D1*
Y66496D1*
G37*
G36*
X51176D2*
X51684D1*
Y67004D1*
X51176D1*
Y66496D1*
G37*
G36*
X21921Y53599D2*
X21413D1*
Y54107D1*
X21921D1*
Y53599D1*
G37*
G36*
Y51059D2*
X21413D1*
Y51567D1*
X21921D1*
Y51059D1*
G37*
G36*
X38516Y31329D2*
X39024D1*
Y31837D1*
X38516D1*
Y31329D1*
G37*
G36*
X35976D2*
X36484D1*
Y31837D1*
X35976D1*
Y31329D1*
G37*
G36*
X41016Y62496D2*
X41524D1*
Y63004D1*
X41016D1*
Y62496D1*
G37*
G36*
X38476D2*
X38984D1*
Y63004D1*
X38476D1*
Y62496D1*
G37*
G36*
X59579Y23163D2*
X60087D1*
Y23671D1*
X59579D1*
Y23163D1*
G37*
G36*
X48579Y23496D2*
X49087D1*
Y24004D1*
X48579D1*
Y23496D1*
G37*
G36*
X56754Y42806D2*
X56246D1*
Y43314D1*
X56754D1*
Y42806D1*
G37*
G36*
Y40266D2*
X56246D1*
Y40774D1*
X56754D1*
Y40266D1*
G37*
G36*
Y37726D2*
X56246D1*
Y38234D1*
X56754D1*
Y37726D1*
G37*
G36*
Y35186D2*
X56246D1*
Y35694D1*
X56754D1*
Y35186D1*
G37*
G36*
X41913Y18163D2*
X42421D1*
Y18671D1*
X41913D1*
Y18163D1*
G37*
G36*
Y9996D2*
X42421D1*
Y10504D1*
X41913D1*
Y9996D1*
G37*
G36*
X18413Y10829D2*
X18921D1*
Y11337D1*
X18413D1*
Y10829D1*
G37*
G36*
X55254Y50433D2*
X54746D1*
Y50941D1*
X55254D1*
Y50433D1*
G37*
G36*
Y47893D2*
X54746D1*
Y48401D1*
X55254D1*
Y47893D1*
G37*
G36*
X65913Y48496D2*
X66421D1*
Y49004D1*
X65913D1*
Y48496D1*
G37*
X0Y40083D2*
D14*
G02X0Y40083I40000J0D01*
G01*
M02*
