G04 DipTrace 2.4.0.2*
%INTopSilk.gbr*%
%MOMM*%
%ADD10C,0.25*%
%ADD16C,0.203*%
%ADD17C,0.254*%
%FSLAX53Y53*%
G04*
G71*
G90*
G75*
G01*
%LNTopSilk*%
%LPD*%
X24577Y9466D2*
D10*
X24077Y8966D1*
Y9966D2*
X23577Y9466D1*
X24077Y8966D1*
X23637Y11621D2*
X23644Y11822D1*
X23665Y12023D1*
X23700Y12222D1*
X23749Y12418D1*
X23812Y12610D1*
X23887Y12798D1*
X23976Y12979D1*
X24077Y13154D1*
X24190Y13322D1*
X24314Y13481D1*
X24450Y13631D1*
X24595Y13771D1*
X24750Y13901D1*
X24913Y14020D1*
X25084Y14127D1*
X25263Y14222D1*
X25447Y14304D1*
X25637Y14373D1*
X25831Y14429D1*
X26029Y14471D1*
X26229Y14499D1*
X26431Y14513D1*
X26633D1*
X26834Y14499D1*
X27034Y14471D1*
X27232Y14429D1*
X27426Y14373D1*
X27616Y14304D1*
X27800Y14222D1*
X27979Y14127D1*
X28150Y14020D1*
X28314Y13901D1*
X28468Y13771D1*
X28614Y13631D1*
X28749Y13481D1*
X28873Y13322D1*
X28986Y13154D1*
X29087Y12979D1*
X29176Y12798D1*
X29251Y12610D1*
X29314Y12418D1*
X29363Y12222D1*
X29398Y12023D1*
X29419Y11822D1*
X29426Y11621D1*
X29419Y11419D1*
X29398Y11218D1*
X29363Y11019D1*
X29314Y10823D1*
X29251Y10631D1*
X29176Y10443D1*
X29087Y10262D1*
X28986Y10087D1*
X28873Y9919D1*
X28749Y9760D1*
X28614Y9610D1*
X28468Y9470D1*
X28314Y9340D1*
X28150Y9221D1*
X27979Y9114D1*
X27800Y9019D1*
X27616Y8937D1*
X27426Y8868D1*
X27232Y8812D1*
X27034Y8770D1*
X26834Y8742D1*
X26633Y8728D1*
X26431D1*
X26229Y8742D1*
X26029Y8770D1*
X25831Y8812D1*
X25637Y8868D1*
X25447Y8937D1*
X25263Y9019D1*
X25084Y9114D1*
X24913Y9221D1*
X24750Y9340D1*
X24595Y9470D1*
X24450Y9610D1*
X24314Y9760D1*
X24190Y9919D1*
X24077Y10087D1*
X23976Y10262D1*
X23887Y10443D1*
X23812Y10631D1*
X23749Y10823D1*
X23700Y11019D1*
X23665Y11218D1*
X23644Y11419D1*
X23637Y11621D1*
X15126Y15679D2*
D16*
X20207D1*
Y14917D1*
Y14155D1*
X15126D1*
Y14917D1*
Y15679D1*
X20207Y14917D2*
X20460D1*
X15126D2*
X14873D1*
X58595Y12687D2*
X59865D1*
X60500Y12052D1*
Y10782D2*
X59865Y10147D1*
X60500Y12052D2*
X61135Y12687D1*
X62405D1*
X63040Y12052D1*
Y10782D2*
X62405Y10147D1*
X61135D1*
X60500Y10782D1*
X57960Y12052D2*
Y10782D1*
X58595Y12687D2*
X57960Y12052D1*
Y10782D2*
X58595Y10147D1*
X59865D2*
X58595D1*
X63040Y12052D2*
Y10782D1*
X62572Y4813D2*
X61302D1*
X60667Y5448D1*
Y6718D2*
X61302Y7353D1*
X60667Y5448D2*
X60032Y4813D1*
X58762D1*
X58127Y5448D1*
Y6718D2*
X58762Y7353D1*
X60032D1*
X60667Y6718D1*
X63207Y5448D2*
Y6718D1*
X62572Y4813D2*
X63207Y5448D1*
Y6718D2*
X62572Y7353D1*
X61302D2*
X62572D1*
X58127Y5448D2*
Y6718D1*
X65230Y14678D2*
Y15948D1*
X65865Y16583D1*
X67135D2*
X67770Y15948D1*
X65865Y16583D2*
X65230Y17218D1*
Y18488D1*
X65865Y19123D1*
X67135D2*
X67770Y18488D1*
Y17218D1*
X67135Y16583D1*
X65865Y14043D2*
X67135D1*
X65230Y14678D2*
X65865Y14043D1*
X67135D2*
X67770Y14678D1*
Y15948D2*
Y14678D1*
X65865Y19123D2*
X67135D1*
X60937Y17052D2*
X61572Y17687D1*
X62842D1*
X63477Y17052D1*
Y15782D2*
X62842Y15147D1*
X61572D1*
X60937Y15782D1*
X56491Y17687D2*
X57762D1*
X58396Y17052D1*
Y15782D2*
X57762Y15147D1*
X58396Y17052D2*
X59032Y17687D1*
X60301D1*
X60937Y17052D1*
Y15782D2*
X60301Y15147D1*
X59032D1*
X58396Y15782D1*
X55857Y17052D2*
Y15782D1*
X56491Y17687D2*
X55857Y17052D1*
Y15782D2*
X56491Y15147D1*
X57762D2*
X56491D1*
X63477Y17052D2*
Y15782D1*
X45698Y10354D2*
X45063Y10988D1*
Y12259D1*
X45698Y12893D1*
X46968D2*
X47603Y12259D1*
Y10988D1*
X46968Y10354D1*
X45063Y5908D2*
Y7178D1*
X45698Y7813D1*
X46968D2*
X47603Y7178D1*
X45698Y7813D2*
X45063Y8449D1*
Y9718D1*
X45698Y10354D1*
X46968D2*
X47603Y9718D1*
Y8449D1*
X46968Y7813D1*
X45698Y5273D2*
X46968D1*
X45063Y5908D2*
X45698Y5273D1*
X46968D2*
X47603Y5908D1*
Y7178D2*
Y5908D1*
X45698Y12893D2*
X46968D1*
X50698Y10354D2*
X50063Y10988D1*
Y12259D1*
X50698Y12893D1*
X51968D2*
X52603Y12259D1*
Y10988D1*
X51968Y10354D1*
X50063Y5908D2*
Y7178D1*
X50698Y7813D1*
X51968D2*
X52603Y7178D1*
X50698Y7813D2*
X50063Y8449D1*
Y9718D1*
X50698Y10354D1*
X51968D2*
X52603Y9718D1*
Y8449D1*
X51968Y7813D1*
X50698Y5273D2*
X51968D1*
X50063Y5908D2*
X50698Y5273D1*
X51968D2*
X52603Y5908D1*
Y7178D2*
Y5908D1*
X50698Y12893D2*
X51968D1*
X74500Y40068D2*
Y39559D1*
Y42607D2*
Y42099D1*
Y37273D2*
Y37527D1*
Y37273D2*
X73510D1*
X73230Y37553D1*
X74500Y37273D2*
X75490D1*
X75770Y37553D1*
X74500Y44893D2*
Y44640D1*
Y44893D2*
X75490D1*
X75770Y44614D1*
X74500Y44893D2*
X73510D1*
X73230Y44614D1*
X70000Y40068D2*
Y39559D1*
Y42607D2*
Y42099D1*
Y37273D2*
Y37527D1*
Y37273D2*
X69010D1*
X68730Y37553D1*
X70000Y37273D2*
X70990D1*
X71270Y37553D1*
X70000Y44893D2*
Y44640D1*
Y44893D2*
X70990D1*
X71270Y44614D1*
X70000Y44893D2*
X69010D1*
X68730Y44614D1*
X70500Y51718D2*
D17*
G02X68939Y52449I0J2032D01*
G01*
X72293Y52794D2*
G02X70500Y51718I-1794J958D01*
G01*
Y55782D2*
G03X68949Y55063I0J-2031D01*
G01*
X72264Y54758D2*
G03X70500Y55782I-1764J-1007D01*
G01*
X68925Y52454D2*
Y52962D1*
Y55046D2*
Y54588D1*
X73738Y47543D2*
D16*
Y52624D1*
X74500D1*
X75262D1*
Y47543D1*
X74500D1*
X73738D1*
X74500Y52624D2*
Y52877D1*
Y47543D2*
Y47290D1*
X6507Y37917D2*
X5999D1*
X9047D2*
X8540D1*
X11588D2*
X11079D1*
X14127D2*
X13619D1*
X16667D2*
X16160D1*
X3713D2*
X3968D1*
X3713D2*
Y38907D1*
X3992Y39187D1*
X3713Y37917D2*
Y36926D1*
X3992Y36647D1*
X18953Y37917D2*
X18699D1*
X18953D2*
Y36926D1*
X18674Y36647D1*
X18953Y37917D2*
Y38907D1*
X18674Y39187D1*
X43040Y73488D2*
X37960D1*
Y74250D1*
Y75012D1*
X43040D1*
Y74250D1*
Y73488D1*
X37960Y74250D2*
X37706D1*
X43040D2*
X43294D1*
X43207Y70488D2*
X38126D1*
Y71250D1*
Y72012D1*
X43207D1*
Y71250D1*
Y70488D1*
X38126Y71250D2*
X37873D1*
X43207D2*
X43460D1*
X8933Y22917D2*
G02X8933Y22917I5900J0D01*
G01*
X43175Y68020D2*
X44445D1*
X45080Y67385D1*
Y66115D2*
X44445Y65480D1*
X40000Y67385D2*
X40635Y68020D1*
X41905D1*
X42540Y67385D1*
Y66115D2*
X41905Y65480D1*
X40635D1*
X40000Y66115D1*
X43175Y68020D2*
X42540Y67385D1*
Y66115D2*
X43175Y65480D1*
X44445D2*
X43175D1*
X35555Y68020D2*
X36825D1*
X37460Y67385D1*
Y66115D2*
X36825Y65480D1*
X37460Y67385D2*
X38095Y68020D1*
X39365D1*
X40000Y67385D1*
Y66115D2*
X39365Y65480D1*
X38095D1*
X37460Y66115D1*
X32380Y67385D2*
X33015Y68020D1*
X34285D1*
X34920Y67385D1*
Y66115D2*
X34285Y65480D1*
X33015D1*
X32380Y66115D1*
X35555Y68020D2*
X34920Y67385D1*
Y66115D2*
X35555Y65480D1*
X36825D2*
X35555D1*
X27935Y68020D2*
X29205D1*
X29840Y67385D1*
Y66115D2*
X29205Y65480D1*
X29840Y67385D2*
X30475Y68020D1*
X31745D1*
X32380Y67385D1*
Y66115D2*
X31745Y65480D1*
X30475D1*
X29840Y66115D1*
X27300Y67385D2*
Y66115D1*
X27935Y68020D2*
X27300Y67385D1*
Y66115D2*
X27935Y65480D1*
X29205D2*
X27935D1*
X45715Y68020D2*
X46985D1*
X47620Y67385D1*
Y66115D2*
X46985Y65480D1*
X45715Y68020D2*
X45080Y67385D1*
Y66115D2*
X45715Y65480D1*
X46985D2*
X45715D1*
X48255Y68020D2*
X49525D1*
X50160Y67385D1*
Y66115D2*
X49525Y65480D1*
X48255Y68020D2*
X47620Y67385D1*
Y66115D2*
X48255Y65480D1*
X49525D2*
X48255D1*
X50795Y68020D2*
X52065D1*
X52700Y67385D1*
Y66115D1*
X52065Y65480D1*
X50795Y68020D2*
X50160Y67385D1*
Y66115D2*
X50795Y65480D1*
X52065D2*
X50795D1*
X20397Y50678D2*
Y51948D1*
X21032Y52583D1*
X22302D2*
X22937Y51948D1*
X21032Y52583D2*
X20397Y53218D1*
Y54488D1*
X21032Y55123D1*
X22302D2*
X22937Y54488D1*
Y53218D1*
X22302Y52583D1*
X21032Y50043D2*
X22302D1*
X20397Y50678D2*
X21032Y50043D1*
X22302D2*
X22937Y50678D1*
Y51948D2*
Y50678D1*
X21032Y55123D2*
X22302D1*
X35595Y32853D2*
X36865D1*
X37500Y32218D1*
Y30948D2*
X36865Y30313D1*
X37500Y32218D2*
X38135Y32853D1*
X39405D1*
X40040Y32218D1*
Y30948D2*
X39405Y30313D1*
X38135D1*
X37500Y30948D1*
X34960Y32218D2*
Y30948D1*
X35595Y32853D2*
X34960Y32218D1*
Y30948D2*
X35595Y30313D1*
X36865D2*
X35595D1*
X40040Y32218D2*
Y30948D1*
X38095Y64020D2*
X39365D1*
X40000Y63385D1*
Y62115D2*
X39365Y61480D1*
X40000Y63385D2*
X40635Y64020D1*
X41905D1*
X42540Y63385D1*
Y62115D2*
X41905Y61480D1*
X40635D1*
X40000Y62115D1*
X37460Y63385D2*
Y62115D1*
X38095Y64020D2*
X37460Y63385D1*
Y62115D2*
X38095Y61480D1*
X39365D2*
X38095D1*
X42540Y63385D2*
Y62115D1*
X61103Y24052D2*
X60468Y24687D1*
X59198D1*
X58563Y24052D1*
Y22782D1*
X59198Y22147D1*
X60468D1*
X61103Y22782D1*
Y24052D1*
X50103Y24385D2*
X49468Y25020D1*
X48198D1*
X47563Y24385D1*
Y23115D1*
X48198Y22480D1*
X49468D1*
X50103Y23115D1*
Y24385D1*
X55230Y42425D2*
Y43695D1*
X55865Y44330D1*
X57135D2*
X57770Y43695D1*
X55865Y39250D2*
X55230Y39885D1*
Y41155D1*
X55865Y41790D1*
X57135D2*
X57770Y41155D1*
Y39885D1*
X57135Y39250D1*
X55230Y42425D2*
X55865Y41790D1*
X57135D2*
X57770Y42425D1*
Y43695D2*
Y42425D1*
X55230Y34805D2*
Y36075D1*
X55865Y36710D1*
X57135D2*
X57770Y36075D1*
X55865Y36710D2*
X55230Y37345D1*
Y38615D1*
X55865Y39250D1*
X57135D2*
X57770Y38615D1*
Y37345D1*
X57135Y36710D1*
X55865Y34170D2*
X57135D1*
X55230Y34805D2*
X55865Y34170D1*
X57135D2*
X57770Y34805D1*
Y36075D2*
Y34805D1*
X55865Y44330D2*
X57135D1*
X43437Y19052D2*
X42802Y19687D1*
X41532D1*
X40897Y19052D1*
Y17782D1*
X41532Y17147D1*
X42802D1*
X43437Y17782D1*
Y19052D1*
Y10885D2*
X42802Y11520D1*
X41532D1*
X40897Y10885D1*
Y9615D1*
X41532Y8980D1*
X42802D1*
X43437Y9615D1*
Y10885D1*
X19937Y11718D2*
X19302Y12353D1*
X18032D1*
X17397Y11718D1*
Y10448D1*
X18032Y9813D1*
X19302D1*
X19937Y10448D1*
Y11718D1*
X53730Y47512D2*
Y48782D1*
X54365Y49417D1*
X55635D2*
X56270Y48782D1*
X54365Y49417D2*
X53730Y50052D1*
Y51322D1*
X54365Y51957D1*
X55635D2*
X56270Y51322D1*
Y50052D1*
X55635Y49417D1*
X54365Y46877D2*
X55635D1*
X53730Y47512D2*
X54365Y46877D1*
X55635D2*
X56270Y47512D1*
Y48782D2*
Y47512D1*
X54365Y51957D2*
X55635D1*
X67437Y49385D2*
X66802Y50020D1*
X65532D1*
X64897Y49385D1*
Y48115D1*
X65532Y47480D1*
X66802D1*
X67437Y48115D1*
Y49385D1*
M02*
