G04 DipTrace 2.4.0.2*
%INBottomSilk.gbr*%
%MOMM*%
%ADD19C,0.203*%
%FSLAX53Y53*%
G04*
G71*
G90*
G75*
G01*
%LNBotSilk*%
%LPD*%
X19157Y38270D2*
D19*
X19792Y38905D1*
Y40175D1*
X19157Y40810D1*
X17887D2*
X17252Y40175D1*
Y38905D1*
X17887Y38270D1*
X19792Y33825D2*
Y35095D1*
X19157Y35730D1*
X17887D2*
X17252Y35095D1*
X19157Y35730D2*
X19792Y36365D1*
Y37635D1*
X19157Y38270D1*
X17887D2*
X17252Y37635D1*
Y36365D1*
X17887Y35730D1*
X19157Y33190D2*
X17887D1*
X19792Y33825D2*
X19157Y33190D1*
X17887D2*
X17252Y33825D1*
Y35095D2*
Y33825D1*
X19157Y40810D2*
X17887D1*
X44624Y41838D2*
Y43108D1*
X43989Y43744D1*
X42719D2*
X42084Y43108D1*
X43989Y38664D2*
X44624Y39298D1*
Y40568D1*
X43989Y41204D1*
X42719D2*
X42084Y40568D1*
Y39298D1*
X42719Y38664D1*
X44624Y41838D2*
X43989Y41204D1*
X42719D2*
X42084Y41838D1*
Y43108D2*
Y41838D1*
X44624Y34218D2*
Y35488D1*
X43989Y36124D1*
X42719D2*
X42084Y35488D1*
X43989Y36124D2*
X44624Y36758D1*
Y38028D1*
X43989Y38664D1*
X42719D2*
X42084Y38028D1*
Y36758D1*
X42719Y36124D1*
X43989Y31044D2*
X44624Y31678D1*
Y32948D1*
X43989Y33584D1*
X42719D2*
X42084Y32948D1*
Y31678D1*
X42719Y31044D1*
X44624Y34218D2*
X43989Y33584D1*
X42719D2*
X42084Y34218D1*
Y35488D2*
Y34218D1*
X44624Y26598D2*
Y27870D1*
X43989Y28504D1*
X42719D2*
X42084Y27870D1*
X43989Y28504D2*
X44624Y29138D1*
Y30408D1*
X43989Y31044D1*
X42719D2*
X42084Y30408D1*
Y29138D1*
X42719Y28504D1*
X43989Y25964D2*
X42719D1*
X44624Y26598D2*
X43989Y25964D1*
X42719D2*
X42084Y26598D1*
Y27870D2*
Y26598D1*
X44624Y44378D2*
Y45648D1*
X43989Y46284D1*
X42719D1*
X42084Y45648D1*
X44624Y44378D2*
X43989Y43744D1*
X42719D2*
X42084Y44378D1*
Y45648D2*
Y44378D1*
X42076Y48336D2*
X42711Y48971D1*
X43981D1*
X44616Y48336D1*
Y47066D1*
X43981Y46431D1*
X42711D1*
X42076Y47066D1*
Y48336D1*
X30106Y48155D2*
X30741Y48790D1*
X32011D1*
X32646Y48155D1*
Y46885D1*
X32011Y46250D1*
X30741D1*
X30106Y46885D1*
Y48155D1*
X41996Y25657D2*
X41360Y26292D1*
X40091D1*
X39455Y25657D1*
X38821Y26292D1*
X37550D1*
X36916Y25657D1*
X36281Y26292D1*
X35011D1*
X34376Y25657D1*
X33740Y26292D1*
X32471D1*
X31835Y25657D1*
X31201Y26292D1*
X29930D1*
X29296Y25657D1*
X28661Y26292D1*
X27391D1*
X26756Y25657D1*
Y24387D1*
X27391Y23752D1*
X28661D1*
X29296Y24387D1*
X29930Y23752D1*
X31201D1*
X31835Y24387D1*
X32471Y23752D1*
X33740D1*
X34376Y24387D1*
X35011Y23752D1*
X36281D1*
X36916Y24387D1*
X37550Y23752D1*
X38821D1*
X39455Y24387D1*
X40091Y23752D1*
X41360D1*
X41996Y24387D1*
Y25657D1*
X39455D2*
Y24387D1*
X36916Y25657D2*
Y24387D1*
X34376Y25657D2*
Y24387D1*
X31835Y25657D2*
Y24387D1*
X29296Y25657D2*
Y24387D1*
M02*
