G04 DipTrace 2.4.0.2*
%INBottomAssy.gbr*%
%MOMM*%
%FSLAX53Y53*%
G04*
G71*
G90*
G75*
G01*
%LNBotAssy*%
%LPD*%
G36*
X18268Y39286D2*
X18776D1*
Y39794D1*
X18268D1*
Y39286D1*
G37*
G36*
Y36746D2*
X18776D1*
Y37254D1*
X18268D1*
Y36746D1*
G37*
G36*
Y34206D2*
X18776D1*
Y34714D1*
X18268D1*
Y34206D1*
G37*
G36*
X43100Y42220D2*
X43608D1*
Y42728D1*
X43100D1*
Y42220D1*
G37*
G36*
Y39680D2*
X43608D1*
Y40188D1*
X43100D1*
Y39680D1*
G37*
G36*
Y37140D2*
X43608D1*
Y37648D1*
X43100D1*
Y37140D1*
G37*
G36*
Y34600D2*
X43608D1*
Y35108D1*
X43100D1*
Y34600D1*
G37*
G36*
Y32060D2*
X43608D1*
Y32568D1*
X43100D1*
Y32060D1*
G37*
G36*
Y29520D2*
X43608D1*
Y30028D1*
X43100D1*
Y29520D1*
G37*
G36*
Y26980D2*
X43608D1*
Y27488D1*
X43100D1*
Y26980D1*
G37*
G36*
Y44760D2*
X43608D1*
Y45268D1*
X43100D1*
Y44760D1*
G37*
G36*
X43600Y47447D2*
X43092D1*
Y47955D1*
X43600D1*
Y47447D1*
G37*
G36*
X31630Y47266D2*
X31122D1*
Y47774D1*
X31630D1*
Y47266D1*
G37*
G36*
X41017Y24729D2*
X40434D1*
Y25314D1*
X41017D1*
Y24729D1*
G37*
G36*
X38478D2*
X37893D1*
Y25314D1*
X38478D1*
Y24729D1*
G37*
G36*
X35938D2*
X35354D1*
Y25314D1*
X35938D1*
Y24729D1*
G37*
G36*
X33397D2*
X32814D1*
Y25314D1*
X33397D1*
Y24729D1*
G37*
G36*
X30858D2*
X30273D1*
Y25314D1*
X30858D1*
Y24729D1*
G37*
G36*
X28318D2*
X27734D1*
Y25314D1*
X28318D1*
Y24729D1*
G37*
M02*
