G04 DipTrace 2.4.0.2*
%INTop.gbr*%
%MOMM*%
%ADD13C,0.35*%
%ADD14C,1.6*%
%ADD15R,1.6X1.6*%
%ADD16R,1.5X1.5*%
%ADD17C,1.5*%
%ADD18C,1.27*%
%ADD20C,1.778*%
%ADD22C,1.88*%
%FSLAX53Y53*%
G04*
G71*
G90*
G75*
G01*
%LNTop*%
%LPD*%
X43346Y47701D2*
D13*
X51549D1*
X55000Y44250D1*
Y37417D1*
X59667Y32750D1*
Y12581D1*
Y11948D1*
X59031Y12583D1*
X52707D1*
X8000Y6750D2*
Y6083D1*
X12333Y1750D1*
X61000D1*
X63000Y3750D1*
Y9247D1*
X59667Y12581D1*
X59937Y9167D2*
Y8813D1*
X61333Y7417D1*
Y4583D1*
X59833Y3083D1*
X14207D1*
X10540Y6750D1*
X59937Y9167D2*
Y6083D1*
X47397Y61083D2*
Y65520D1*
X44833Y68083D1*
X40767D1*
X39017Y66333D1*
X47230Y8583D2*
Y6783D1*
X47930Y6083D1*
X55372D1*
X57397D1*
X25047Y12333D2*
X23563Y13817D1*
X12100D1*
X5792Y20125D1*
Y26707D1*
X6250Y27165D1*
Y29750D1*
X10333Y43710D2*
X12724D1*
Y45388D1*
X14124Y46788D1*
Y48790D1*
Y50740D1*
X13424Y51440D1*
X10667D1*
X12724Y45388D2*
Y46088D1*
X10333D1*
Y46250D1*
X14124Y48790D2*
X10333D1*
X6250Y29750D2*
X8789Y32289D1*
Y43710D1*
X10333D1*
X39017Y66333D2*
X36523Y63840D1*
Y63773D1*
X25167Y52417D1*
Y22190D1*
X25344D1*
Y21583D1*
X34875D1*
X38186Y24895D1*
X47230Y8583D2*
Y12187D1*
X47627Y12583D1*
X25047Y12333D2*
Y10037D1*
X26833Y8250D1*
X46897D1*
X47230Y8583D1*
X25344Y21583D2*
Y12630D1*
X25047Y12333D1*
X49833Y43417D2*
X51833D1*
X52190Y43060D1*
X47627Y12583D2*
X55833Y20790D1*
Y24750D1*
X57397Y6083D2*
Y9167D1*
X42317Y61083D2*
Y58917D1*
X62477D1*
Y59773D1*
X53000Y69250D1*
X24153D1*
X21237Y66333D1*
X40287Y12333D2*
Y16658D1*
X40987Y17358D1*
X45275D1*
X52333Y24417D1*
Y24583D1*
X54665Y26915D1*
X56931D1*
X58333Y25513D1*
Y16660D1*
X56931Y15258D1*
X52842D1*
X50167Y12583D1*
X40726Y25149D2*
Y48465D1*
X41426Y49165D1*
X51751D1*
X56167Y44750D1*
Y38917D1*
X59643Y35440D1*
X59810D1*
X5167Y48790D2*
Y48628D1*
X7557D1*
Y46088D1*
Y43710D1*
X5167D1*
X4246Y58250D2*
Y48790D1*
X5167D1*
X21237Y66333D2*
Y63658D1*
X9654D1*
X4246Y58250D1*
X50167Y12583D2*
Y10305D1*
X49770Y9908D1*
Y8583D1*
X62477Y55750D2*
Y58917D1*
X62810Y51250D2*
X62500Y51560D1*
Y53417D1*
X62673Y53590D1*
X62302D1*
X62477Y53765D1*
Y55750D1*
X59810Y35440D2*
X61133D1*
X62667Y36974D1*
Y51250D1*
X62810D1*
X5167Y46250D2*
Y46088D1*
X7557D1*
X49770Y8583D2*
X53500D1*
X56333Y11417D1*
X58833D1*
Y4750D1*
X59167Y4417D1*
X19167D1*
X2333Y21250D1*
Y60750D1*
X8000Y66417D1*
X21153D1*
X21237Y66333D1*
X37747Y12333D2*
Y16497D1*
X39500Y18250D1*
X44167D1*
X53667Y27750D1*
Y32583D1*
X54000Y32917D1*
Y43750D1*
X52667Y45083D1*
X43296D1*
X43227Y45014D1*
X43481Y42474D2*
X48276D1*
X50833Y39917D1*
Y27417D1*
X43000Y19583D1*
X37667D1*
X35207Y17123D1*
Y12333D1*
X44097Y66333D2*
X28026Y50262D1*
Y24895D1*
X41557Y66333D2*
X38297Y63073D1*
X38157D1*
X26500Y51417D1*
Y23123D1*
X26733Y22890D1*
X28307D1*
X30566Y25149D1*
X12750Y29750D2*
Y33641D1*
X18649Y39540D1*
X59810Y43060D2*
Y50797D1*
X54857Y55750D1*
X44167D1*
X33106Y44689D1*
Y24895D1*
X52477Y61083D2*
Y64043D1*
X52437Y64083D1*
X35646Y25149D2*
Y45229D1*
X41667Y51250D1*
X55190D1*
Y50393D1*
X57167Y48417D1*
Y41766D1*
X58413Y40520D1*
X59810D1*
X49937Y61083D2*
Y64043D1*
X49897Y64083D1*
X13770Y17750D2*
X18649Y22629D1*
Y34460D1*
X11230Y17750D2*
Y20856D1*
X14164Y23790D1*
Y32770D1*
X18395Y37000D1*
X6786Y58250D2*
X8251D1*
X9061Y59060D1*
X10667D1*
X43227Y39934D2*
X44692D1*
X44900Y39727D1*
X48333D1*
X49798Y38262D1*
Y28048D1*
X42540Y20790D1*
X36207D1*
X32667Y17250D1*
Y12333D1*
X43481Y37394D2*
X44946D1*
X45154Y37187D1*
X48333D1*
Y32107D2*
X45572D1*
X45365Y32314D1*
X43481D1*
X48333Y34647D2*
X45050D1*
X44842Y34854D1*
X43227D1*
D14*
X59937Y6083D3*
D15*
X57397D3*
D14*
X49770Y8583D3*
D15*
X47230D3*
D16*
X21237Y66333D3*
D17*
X23777D3*
X26317D3*
X28857D3*
X31397D3*
X33937D3*
X36477D3*
X39017D3*
X41557D3*
X44097D3*
D16*
X40287Y12333D3*
D17*
X37747D3*
X35207D3*
X32667D3*
X30127D3*
X27587D3*
X25047D3*
D16*
X59937Y9167D3*
D17*
X57397D3*
D16*
X47627Y12583D3*
D17*
X50167D3*
X52707D3*
D18*
X2000Y75750D3*
X60333D3*
D20*
X12750Y29750D3*
X6250D3*
G36*
X51859Y42262D2*
X51392Y42730D1*
Y43391D1*
X51859Y43858D1*
X52520D1*
X52988Y43391D1*
Y42730D1*
X52520Y42262D1*
X51859D1*
G37*
G36*
Y39722D2*
X51392Y40190D1*
Y40851D1*
X51859Y41318D1*
X52520D1*
X52988Y40851D1*
Y40190D1*
X52520Y39722D1*
X51859D1*
G37*
G36*
Y37182D2*
X51392Y37649D1*
Y38310D1*
X51859Y38778D1*
X52520D1*
X52988Y38310D1*
Y37649D1*
X52520Y37182D1*
X51859D1*
G37*
G36*
Y34642D2*
X51392Y35109D1*
Y35770D1*
X51859Y36238D1*
X52520D1*
X52988Y35770D1*
Y35109D1*
X52520Y34642D1*
X51859D1*
G37*
G36*
X59480D2*
X59012Y35109D1*
Y35770D1*
X59480Y36238D1*
X60141D1*
X60608Y35770D1*
Y35109D1*
X60141Y34642D1*
X59480D1*
G37*
G36*
Y37182D2*
X59012Y37649D1*
Y38310D1*
X59480Y38778D1*
X60141D1*
X60608Y38310D1*
Y37649D1*
X60141Y37182D1*
X59480D1*
G37*
G36*
Y39722D2*
X59012Y40190D1*
Y40851D1*
X59480Y41318D1*
X60141D1*
X60608Y40851D1*
Y40190D1*
X60141Y39722D1*
X59480D1*
G37*
G36*
Y42262D2*
X59012Y42730D1*
Y43391D1*
X59480Y43858D1*
X60141D1*
X60608Y43391D1*
Y42730D1*
X60141Y42262D1*
X59480D1*
G37*
G36*
X4228Y42770D2*
X3906Y42827D1*
X3623Y42990D1*
X3413Y43239D1*
X3301Y43546D1*
Y43872D1*
X3413Y44179D1*
X3622Y44429D1*
X3905Y44593D1*
X4226Y44650D1*
X6106D1*
X6427Y44593D1*
X6710Y44430D1*
X6920Y44181D1*
X7032Y43874D1*
Y43548D1*
X6921Y43241D1*
X6711Y42991D1*
X6429Y42827D1*
X6107Y42770D1*
X4228D1*
G37*
G36*
Y45310D2*
X3906Y45367D1*
X3623Y45530D1*
X3413Y45779D1*
X3301Y46086D1*
Y46412D1*
X3413Y46719D1*
X3622Y46969D1*
X3905Y47133D1*
X4226Y47190D1*
X6106D1*
X6427Y47133D1*
X6710Y46970D1*
X6920Y46721D1*
X7032Y46414D1*
Y46088D1*
X6921Y45781D1*
X6711Y45531D1*
X6429Y45367D1*
X6107Y45310D1*
X4228D1*
G37*
G36*
Y47850D2*
X3906Y47907D1*
X3623Y48070D1*
X3413Y48319D1*
X3301Y48626D1*
Y48952D1*
X3413Y49259D1*
X3622Y49509D1*
X3905Y49673D1*
X4226Y49730D1*
X6106D1*
X6427Y49673D1*
X6710Y49510D1*
X6920Y49261D1*
X7032Y48954D1*
Y48628D1*
X6921Y48321D1*
X6711Y48071D1*
X6429Y47907D1*
X6107Y47850D1*
X4228D1*
G37*
G36*
X9394Y42770D2*
X9073Y42827D1*
X8790Y42990D1*
X8580Y43239D1*
X8468Y43546D1*
Y43872D1*
X8579Y44179D1*
X8789Y44429D1*
X9071Y44593D1*
X9393Y44650D1*
X11272D1*
X11594Y44593D1*
X11877Y44430D1*
X12087Y44181D1*
X12199Y43874D1*
Y43548D1*
X12087Y43241D1*
X11878Y42991D1*
X11595Y42827D1*
X11274Y42770D1*
X9394D1*
G37*
G36*
Y45310D2*
X9073Y45367D1*
X8790Y45530D1*
X8580Y45779D1*
X8468Y46086D1*
Y46412D1*
X8579Y46719D1*
X8789Y46969D1*
X9071Y47133D1*
X9393Y47190D1*
X11272D1*
X11594Y47133D1*
X11877Y46970D1*
X12087Y46721D1*
X12199Y46414D1*
Y46088D1*
X12087Y45781D1*
X11878Y45531D1*
X11595Y45367D1*
X11274Y45310D1*
X9394D1*
G37*
G36*
Y47850D2*
X9073Y47907D1*
X8790Y48070D1*
X8580Y48319D1*
X8468Y48626D1*
Y48952D1*
X8579Y49259D1*
X8789Y49509D1*
X9071Y49673D1*
X9393Y49730D1*
X11272D1*
X11594Y49673D1*
X11877Y49510D1*
X12087Y49261D1*
X12199Y48954D1*
Y48628D1*
X12087Y48321D1*
X11878Y48071D1*
X11595Y47907D1*
X11274Y47850D1*
X9394D1*
G37*
D22*
X11230Y17750D3*
X13770D3*
X6786Y58250D3*
X4246D3*
X10667Y51440D3*
Y59060D3*
X49897Y64083D3*
X52437D3*
G36*
X42634Y61848D2*
X43082Y61400D1*
Y60766D1*
X42634Y60318D1*
X42000D1*
X41552Y60766D1*
Y61400D1*
X42000Y61848D1*
X42634D1*
G37*
G36*
X45174D2*
X45622Y61400D1*
Y60766D1*
X45174Y60318D1*
X44540D1*
X44092Y60766D1*
Y61400D1*
X44540Y61848D1*
X45174D1*
G37*
G36*
X47714D2*
X48162Y61400D1*
Y60766D1*
X47714Y60318D1*
X47080D1*
X46632Y60766D1*
Y61400D1*
X47080Y61848D1*
X47714D1*
G37*
G36*
X50254D2*
X50702Y61400D1*
Y60766D1*
X50254Y60318D1*
X49620D1*
X49172Y60766D1*
Y61400D1*
X49620Y61848D1*
X50254D1*
G37*
G36*
X52794D2*
X53242Y61400D1*
Y60766D1*
X52794Y60318D1*
X52160D1*
X51712Y60766D1*
Y61400D1*
X52160Y61848D1*
X52794D1*
G37*
G36*
X55334D2*
X55782Y61400D1*
Y60766D1*
X55334Y60318D1*
X54700D1*
X54252Y60766D1*
Y61400D1*
X54700Y61848D1*
X55334D1*
G37*
G36*
X49273Y31167D2*
X47394D1*
Y33046D1*
X49273D1*
Y31167D1*
G37*
D22*
X48333Y34647D3*
Y37187D3*
Y39727D3*
X62810Y51250D3*
X55190D3*
X62477Y55750D3*
X54857D3*
X49833Y43417D3*
X55833Y24750D3*
X18649Y34460D3*
X18395Y37000D3*
X18649Y39540D3*
G36*
X42541Y26294D2*
X44421D1*
Y28174D1*
X42541D1*
Y26294D1*
G37*
D22*
X43227Y29774D3*
X43481Y32314D3*
X43227Y34854D3*
X43481Y37394D3*
X43227Y39934D3*
X43481Y42474D3*
X43227Y45014D3*
X43346Y47701D3*
X31376Y47520D3*
X40726Y25149D3*
X38186Y24895D3*
X35646Y25149D3*
X33106Y24895D3*
X30566Y25149D3*
X28026Y24895D3*
X10707Y9750D3*
X8167D3*
X5627D3*
X10540Y6750D3*
X8000D3*
X5460D3*
M02*
