G04 DipTrace 2.4.0.2*
%INTopAssy.gbr*%
%MOMM*%
%ADD19C,0.203*%
%ADD23C,0.152*%
%FSLAX53Y53*%
G04*
G71*
G90*
G75*
G01*
%LNTopAssy*%
%LPD*%
X8230Y29750D2*
D19*
G02X8230Y29750I1270J0D01*
G01*
G36*
X5421Y48536D2*
X4913D1*
Y49044D1*
X5421D1*
Y48536D1*
G37*
G36*
Y45996D2*
X4913D1*
Y46504D1*
X5421D1*
Y45996D1*
G37*
G36*
Y43456D2*
X4913D1*
Y43964D1*
X5421D1*
Y43456D1*
G37*
G36*
X10587Y48536D2*
X10079D1*
Y49044D1*
X10587D1*
Y48536D1*
G37*
G36*
Y45996D2*
X10079D1*
Y46504D1*
X10587D1*
Y45996D1*
G37*
G36*
Y43456D2*
X10079D1*
Y43964D1*
X10587D1*
Y43456D1*
G37*
G36*
X13516Y17496D2*
X14024D1*
Y18004D1*
X13516D1*
Y17496D1*
G37*
G36*
X10976D2*
X11484D1*
Y18004D1*
X10976D1*
Y17496D1*
G37*
X6659Y58250D2*
D23*
G02X5516Y57107I-1142J-1D01*
G01*
Y59393D2*
G03X4373Y58250I0J-1143D01*
G01*
X7167D2*
G02X5516Y56599I-1651J0D01*
G01*
Y59901D2*
G03X3865Y58250I1J-1651D01*
G01*
X7675D2*
G02X5516Y56091I-2159J0D01*
G01*
Y60409D2*
G03X3357Y58250I0J-2159D01*
G01*
G36*
X52183Y63829D2*
X52691D1*
Y64337D1*
X52183D1*
Y63829D1*
G37*
G36*
X49643D2*
X50151D1*
Y64337D1*
X49643D1*
Y63829D1*
G37*
G36*
X52222Y60829D2*
X52731D1*
Y61337D1*
X52222D1*
Y60829D1*
G37*
G36*
X49683D2*
X50191D1*
Y61337D1*
X49683D1*
Y60829D1*
G37*
G36*
X47143D2*
X47650D1*
Y61337D1*
X47143D1*
Y60829D1*
G37*
G36*
X44602D2*
X45111D1*
Y61337D1*
X44602D1*
Y60829D1*
G37*
G36*
X42063D2*
X42571D1*
Y61337D1*
X42063D1*
Y60829D1*
G37*
G36*
X54763D2*
X55270D1*
Y61337D1*
X54763D1*
Y60829D1*
G37*
G36*
X48587Y39473D2*
X48079D1*
Y39981D1*
X48587D1*
Y39473D1*
G37*
G36*
Y36933D2*
X48079D1*
Y37441D1*
X48587D1*
Y36933D1*
G37*
G36*
Y34393D2*
X48079D1*
Y34901D1*
X48587D1*
Y34393D1*
G37*
G36*
Y31853D2*
X48079D1*
Y32361D1*
X48587D1*
Y31853D1*
G37*
G36*
X49579Y43163D2*
X50087D1*
Y43671D1*
X49579D1*
Y43163D1*
G37*
G36*
X55579Y24496D2*
X56087D1*
Y25004D1*
X55579D1*
Y24496D1*
G37*
G36*
X5881Y10004D2*
X5372D1*
Y9496D1*
X5881D1*
Y10004D1*
G37*
G36*
X8420D2*
X7913D1*
Y9496D1*
X8420D1*
Y10004D1*
G37*
G36*
X10961D2*
X10453D1*
Y9496D1*
X10961D1*
Y10004D1*
G37*
G36*
X5714Y7004D2*
X5206D1*
Y6496D1*
X5714D1*
Y7004D1*
G37*
G36*
X8254D2*
X7746D1*
Y6496D1*
X8254D1*
Y7004D1*
G37*
G36*
X10794D2*
X10286D1*
Y6496D1*
X10794D1*
Y7004D1*
G37*
M02*
