G04 DipTrace 2.4.0.2*
%INTopSilk.gbr*%
%MOMM*%
%ADD10C,0.25*%
%ADD19C,0.203*%
%ADD21C,0.254*%
%ADD23C,0.152*%
%FSLAX53Y53*%
G04*
G71*
G90*
G75*
G01*
%LNTopSilk*%
%LPD*%
X49876Y43284D2*
D10*
X55791Y24882D1*
X52529Y60955D2*
X59758Y43189D1*
X59810Y43060D2*
D3*
X49997Y60958D2*
X59750Y40645D1*
X59810Y40520D2*
D3*
X56890Y4559D2*
X60443D1*
X56890Y7607D2*
X60443D1*
Y4559D2*
G03X60443Y7607I2J1524D01*
G01*
X56890D2*
G03X56890Y4559I-2J-1524D01*
G01*
X46724Y7059D2*
X50276D1*
X46724Y10107D2*
X50276D1*
Y7059D2*
G03X50276Y10107I2J1524D01*
G01*
X46724D2*
G03X46724Y7059I-2J-1524D01*
G01*
X45367Y65063D2*
Y67603D1*
X19967Y65063D2*
X45367D1*
X19967D2*
Y67603D1*
X21872D1*
X45367D1*
X23777Y13603D2*
Y11063D1*
X41557Y13603D2*
X23777D1*
X41557D2*
Y11063D1*
X23777D1*
X56127Y10437D2*
Y7897D1*
X61207Y10437D2*
X56127D1*
X61207D2*
Y7897D1*
X56127D1*
X46357Y11313D2*
Y13853D1*
X53977D1*
Y11313D2*
Y13853D1*
X46357Y11313D2*
X53977D1*
X3600Y29750D2*
D19*
G02X3600Y29750I5900J0D01*
G01*
X58540Y44330D2*
Y34170D1*
Y44330D2*
X54476D1*
X58540Y34170D2*
X53460D1*
Y44330D2*
Y34170D1*
Y44330D2*
X54476D1*
X54984D1*
X54012Y43060D2*
D21*
X54014Y43110D1*
X54019Y43160D1*
X54028Y43209D1*
X54040Y43258D1*
X54055Y43306D1*
X54074Y43352D1*
X54096Y43397D1*
X54121Y43441D1*
X54149Y43482D1*
X54180Y43522D1*
X54214Y43559D1*
X54250Y43594D1*
X54288Y43626D1*
X54329Y43656D1*
X54371Y43682D1*
X54415Y43706D1*
X54461Y43726D1*
X54508Y43743D1*
X54556Y43757D1*
X54605Y43767D1*
X54655Y43774D1*
X54705Y43778D1*
X54755D1*
X54805Y43774D1*
X54855Y43767D1*
X54904Y43757D1*
X54952Y43743D1*
X54999Y43726D1*
X55045Y43706D1*
X55089Y43682D1*
X55132Y43656D1*
X55172Y43626D1*
X55210Y43594D1*
X55246Y43559D1*
X55280Y43522D1*
X55311Y43482D1*
X55339Y43441D1*
X55364Y43397D1*
X55386Y43352D1*
X55405Y43306D1*
X55420Y43258D1*
X55432Y43209D1*
X55441Y43160D1*
X55446Y43110D1*
X55448Y43060D1*
X55446Y43010D1*
X55441Y42960D1*
X55432Y42911D1*
X55420Y42862D1*
X55405Y42814D1*
X55386Y42768D1*
X55364Y42723D1*
X55339Y42679D1*
X55311Y42638D1*
X55280Y42598D1*
X55246Y42561D1*
X55210Y42526D1*
X55172Y42494D1*
X55132Y42464D1*
X55089Y42438D1*
X55045Y42414D1*
X54999Y42394D1*
X54952Y42377D1*
X54904Y42363D1*
X54855Y42353D1*
X54805Y42346D1*
X54755Y42342D1*
X54705D1*
X54655Y42346D1*
X54605Y42353D1*
X54556Y42363D1*
X54508Y42377D1*
X54461Y42394D1*
X54415Y42414D1*
X54371Y42438D1*
X54329Y42464D1*
X54288Y42494D1*
X54250Y42526D1*
X54214Y42561D1*
X54180Y42598D1*
X54149Y42638D1*
X54121Y42679D1*
X54096Y42723D1*
X54074Y42768D1*
X54055Y42814D1*
X54040Y42862D1*
X54028Y42911D1*
X54019Y42960D1*
X54014Y43010D1*
X54012Y43060D1*
X4532Y42440D2*
D19*
X5802D1*
X4532Y50060D2*
X5802D1*
X9698Y42440D2*
X10968D1*
X9698Y50060D2*
X10968D1*
X10595Y19020D2*
X11865D1*
X12500Y18385D1*
Y17115D2*
X11865Y16480D1*
X12500Y18385D2*
X13135Y19020D1*
X14405D1*
X15040Y18385D1*
Y17115D2*
X14405Y16480D1*
X13135D1*
X12500Y17115D1*
X9960Y18385D2*
Y17115D1*
X10595Y19020D2*
X9960Y18385D1*
Y17115D2*
X10595Y16480D1*
X11865D2*
X10595D1*
X15040Y18385D2*
Y17115D1*
X2976Y60155D2*
Y56345D1*
Y60155D2*
D21*
G02X2976Y56345I2540J-1905D01*
G01*
Y58250D2*
D23*
G02X2976Y58250I2540J0D01*
G01*
X9905Y52710D2*
D19*
Y57790D1*
X10667D1*
X11429D1*
Y52710D1*
X10667D1*
X9905D1*
X10667Y57790D2*
Y58044D1*
Y52710D2*
Y52456D1*
X49262Y65353D2*
X50532D1*
X51167Y64718D1*
Y63448D2*
X50532Y62813D1*
X51167Y64718D2*
X51802Y65353D1*
X53072D1*
X53707Y64718D1*
Y63448D2*
X53072Y62813D1*
X51802D1*
X51167Y63448D1*
X48627Y64718D2*
Y63448D1*
X49262Y65353D2*
X48627Y64718D1*
Y63448D2*
X49262Y62813D1*
X50532D2*
X49262D1*
X53707Y64718D2*
Y63448D1*
X49302Y62353D2*
D23*
X50572D1*
X51207Y61718D1*
Y60448D1*
X50572Y59813D1*
X51207Y61718D2*
X51841Y62353D1*
X53112D1*
X53746Y61718D1*
Y60448D1*
X53112Y59813D1*
X51841D1*
X51207Y60448D1*
X46126Y61718D2*
X46762Y62353D1*
X48031D1*
X48667Y61718D1*
Y60448D1*
X48031Y59813D1*
X46762D1*
X46126Y60448D1*
X49302Y62353D2*
X48667Y61718D1*
Y60448D2*
X49302Y59813D1*
X50572D2*
X49302D1*
X41682Y62353D2*
X42952D1*
X43587Y61718D1*
Y60448D1*
X42952Y59813D1*
X43587Y61718D2*
X44221Y62353D1*
X45492D1*
X46126Y61718D1*
Y60448D1*
X45492Y59813D1*
X44221D1*
X43587Y60448D1*
X41047Y61718D2*
Y60448D1*
X41682Y62353D2*
X41047Y61718D1*
Y60448D2*
X41682Y59813D1*
X42952D2*
X41682D1*
X54382Y62353D2*
X55651D1*
X56287Y61718D1*
Y60448D1*
X55651Y59813D1*
X54382Y62353D2*
X53746Y61718D1*
Y60448D2*
X54382Y59813D1*
X55651D2*
X54382D1*
X47063Y39092D2*
D19*
Y40362D1*
X47698Y40997D1*
X48968D2*
X49603Y40362D1*
X47698Y35917D2*
X47063Y36552D1*
Y37822D1*
X47698Y38457D1*
X48968D2*
X49603Y37822D1*
Y36552D1*
X48968Y35917D1*
X47063Y39092D2*
X47698Y38457D1*
X48968D2*
X49603Y39092D1*
Y40362D2*
Y39092D1*
X47063Y31472D2*
Y32742D1*
X47698Y33377D1*
X48968D2*
X49603Y32742D1*
X47698Y33377D2*
X47063Y34012D1*
Y35282D1*
X47698Y35917D1*
X48968D2*
X49603Y35282D1*
Y34012D1*
X48968Y33377D1*
X47698Y30837D2*
X48968D1*
X47063Y31472D2*
X47698Y30837D1*
X48968D2*
X49603Y31472D1*
Y32742D2*
Y31472D1*
X47698Y40997D2*
X48968D1*
X61540Y50488D2*
X56460D1*
Y51250D1*
Y52012D1*
X61540D1*
Y51250D1*
Y50488D1*
X56460Y51250D2*
X56206D1*
X61540D2*
X61794D1*
X61207Y54988D2*
X56126D1*
Y55750D1*
Y56512D1*
X61207D1*
Y55750D1*
Y54988D1*
X56126Y55750D2*
X55873D1*
X61207D2*
X61460D1*
X51103Y44052D2*
X50468Y44687D1*
X49198D1*
X48563Y44052D1*
Y42782D1*
X49198Y42147D1*
X50468D1*
X51103Y42782D1*
Y44052D1*
X57103Y25385D2*
X56468Y26020D1*
X55198D1*
X54563Y25385D1*
Y24115D1*
X55198Y23480D1*
X56468D1*
X57103Y24115D1*
Y25385D1*
X6896Y9115D2*
X6262Y8480D1*
X4991D1*
X4357Y9115D1*
Y10385D2*
X4991Y11020D1*
X6262D1*
X6896Y10385D1*
X11342Y8480D2*
X10072D1*
X9437Y9115D1*
Y10385D2*
X10072Y11020D1*
X9437Y9115D2*
X8801Y8480D1*
X7532D1*
X6896Y9115D1*
Y10385D2*
X7532Y11020D1*
X8801D1*
X9437Y10385D1*
X11977Y9115D2*
Y10385D1*
X11342Y8480D2*
X11977Y9115D1*
Y10385D2*
X11342Y11020D1*
X10072D2*
X11342D1*
X4357Y9115D2*
Y10385D1*
X6730Y6115D2*
X6095Y5480D1*
X4825D1*
X4190Y6115D1*
Y7385D2*
X4825Y8020D1*
X6095D1*
X6730Y7385D1*
X11175Y5480D2*
X9905D1*
X9270Y6115D1*
Y7385D2*
X9905Y8020D1*
X9270Y6115D2*
X8635Y5480D1*
X7365D1*
X6730Y6115D1*
Y7385D2*
X7365Y8020D1*
X8635D1*
X9270Y7385D1*
X11810Y6115D2*
Y7385D1*
X11175Y5480D2*
X11810Y6115D1*
Y7385D2*
X11175Y8020D1*
X9905D2*
X11175D1*
X4190Y6115D2*
Y7385D1*
M02*
