G04 DipTrace 2.4.0.2*
%INTopMask.gbr*%
%MOMM*%
%ADD18C,1.88*%
%ADD23R,0.704X2.004*%
%ADD25R,2.004X0.704*%
%FSLAX53Y53*%
G04*
G71*
G90*
G75*
G01*
%LNTopMask*%
%LPD*%
D25*
X7200Y21000D3*
Y20200D3*
Y19400D3*
Y18600D3*
Y17800D3*
Y17000D3*
Y16200D3*
Y15400D3*
Y14600D3*
Y13800D3*
Y13000D3*
Y12200D3*
Y11400D3*
Y10600D3*
Y9800D3*
Y9000D3*
D23*
X9000Y7200D3*
X9800D3*
X10600D3*
X11400D3*
X12200D3*
X13000D3*
X13800D3*
X14600D3*
X15400D3*
X16200D3*
X17000D3*
X17800D3*
X18600D3*
X19400D3*
X20200D3*
X21000D3*
D25*
X22800Y9000D3*
Y9800D3*
Y10600D3*
Y11400D3*
Y12200D3*
Y13000D3*
Y13800D3*
Y14600D3*
Y15400D3*
Y16200D3*
Y17000D3*
Y17800D3*
Y18600D3*
Y19400D3*
Y20200D3*
Y21000D3*
D23*
X21000Y22800D3*
X20200D3*
X19400D3*
X18600D3*
X17800D3*
X17000D3*
X16200D3*
X15400D3*
X14600D3*
X13800D3*
X13000D3*
X12200D3*
X11400D3*
X10600D3*
X9800D3*
X9000D3*
D18*
X27727Y12460D3*
X27981Y15000D3*
X27727Y17540D3*
X22415Y5719D3*
X28918D3*
X22415Y1198D3*
X28918D3*
G36*
X3834Y4294D2*
X1955D1*
Y6174D1*
X3834D1*
Y4294D1*
G37*
D18*
X3149Y7774D3*
X2895Y10314D3*
X3149Y12854D3*
X2895Y15394D3*
X3149Y17934D3*
X2895Y20474D3*
X3149Y23014D3*
X3753Y28125D3*
X13913D3*
X15920D3*
X26080D3*
X3030Y25701D3*
X15000Y25520D3*
X5650Y3149D3*
X8190Y2895D3*
X10730Y3149D3*
X13270Y2895D3*
X15810Y3149D3*
X18350Y2895D3*
M02*
