G04 DipTrace 2.4.0.2*
%INTopSilk.gbr*%
%MOMM*%
%ADD10C,0.25*%
%ADD14O,0.39X0.388*%
%ADD17C,0.203*%
%FSLAX53Y53*%
G04*
G71*
G90*
G75*
G01*
%LNTopSilk*%
%LPD*%
X8499Y21501D2*
D10*
X21501D1*
Y8499D1*
X8499D1*
Y21501D1*
D14*
X7182Y21790D3*
G36*
X8499Y21501D2*
Y20500D1*
X9500Y21501D1*
X8499D1*
G37*
X27219Y16270D2*
D17*
X26584Y16905D1*
Y18175D1*
X27219Y18810D1*
X28489D2*
X29124Y18175D1*
Y16905D1*
X28489Y16270D1*
X26584Y11825D2*
Y13095D1*
X27219Y13730D1*
X28489D2*
X29124Y13095D1*
X27219Y13730D2*
X26584Y14365D1*
Y15635D1*
X27219Y16270D1*
X28489D2*
X29124Y15635D1*
Y14365D1*
X28489Y13730D1*
X27219Y11190D2*
X28489D1*
X26584Y11825D2*
X27219Y11190D1*
X28489D2*
X29124Y11825D1*
Y13095D2*
Y11825D1*
X27219Y18810D2*
X28489D1*
X27826Y6506D2*
X23507D1*
Y410D2*
X27826D1*
X28715Y4456D2*
Y2442D1*
X22618Y4486D2*
Y2442D1*
X23889Y3458D2*
X23893Y3582D1*
X23906Y3706D1*
X23928Y3828D1*
X23958Y3948D1*
X23996Y4066D1*
X24043Y4182D1*
X24097Y4293D1*
X24159Y4401D1*
X24228Y4503D1*
X24305Y4601D1*
X24388Y4694D1*
X24477Y4780D1*
X24572Y4860D1*
X24673Y4932D1*
X24778Y4998D1*
X24887Y5057D1*
X25001Y5107D1*
X25117Y5149D1*
X25237Y5184D1*
X25358Y5209D1*
X25481Y5227D1*
X25605Y5235D1*
X25729D1*
X25852Y5227D1*
X25975Y5209D1*
X26097Y5184D1*
X26216Y5149D1*
X26333Y5107D1*
X26446Y5057D1*
X26556Y4998D1*
X26661Y4932D1*
X26761Y4860D1*
X26856Y4780D1*
X26946Y4694D1*
X27029Y4601D1*
X27105Y4503D1*
X27174Y4401D1*
X27236Y4293D1*
X27291Y4182D1*
X27337Y4066D1*
X27376Y3948D1*
X27406Y3828D1*
X27427Y3706D1*
X27440Y3582D1*
X27444Y3458D1*
X27440Y3334D1*
X27427Y3211D1*
X27406Y3089D1*
X27376Y2968D1*
X27337Y2850D1*
X27291Y2735D1*
X27236Y2624D1*
X27174Y2516D1*
X27105Y2413D1*
X27029Y2315D1*
X26946Y2223D1*
X26856Y2137D1*
X26761Y2057D1*
X26661Y1984D1*
X26556Y1918D1*
X26446Y1860D1*
X26333Y1810D1*
X26216Y1767D1*
X26097Y1733D1*
X25975Y1707D1*
X25852Y1690D1*
X25729Y1681D1*
X25605D1*
X25481Y1690D1*
X25358Y1707D1*
X25237Y1733D1*
X25117Y1767D1*
X25001Y1810D1*
X24887Y1860D1*
X24778Y1918D1*
X24673Y1984D1*
X24572Y2057D1*
X24477Y2137D1*
X24388Y2223D1*
X24305Y2315D1*
X24228Y2413D1*
X24159Y2516D1*
X24097Y2624D1*
X24043Y2735D1*
X23996Y2850D1*
X23958Y2968D1*
X23928Y3089D1*
X23906Y3211D1*
X23893Y3334D1*
X23889Y3458D1*
X1752Y19838D2*
Y21108D1*
X2387Y21744D1*
X3657D2*
X4292Y21108D1*
X2387Y16664D2*
X1752Y17298D1*
Y18568D1*
X2387Y19204D1*
X3657D2*
X4292Y18568D1*
Y17298D1*
X3657Y16664D1*
X1752Y19838D2*
X2387Y19204D1*
X3657D2*
X4292Y19838D1*
Y21108D2*
Y19838D1*
X1752Y12218D2*
Y13488D1*
X2387Y14124D1*
X3657D2*
X4292Y13488D1*
X2387Y14124D2*
X1752Y14758D1*
Y16028D1*
X2387Y16664D1*
X3657D2*
X4292Y16028D1*
Y14758D1*
X3657Y14124D1*
X2387Y9044D2*
X1752Y9678D1*
Y10948D1*
X2387Y11584D1*
X3657D2*
X4292Y10948D1*
Y9678D1*
X3657Y9044D1*
X1752Y12218D2*
X2387Y11584D1*
X3657D2*
X4292Y12218D1*
Y13488D2*
Y12218D1*
X1752Y4598D2*
Y5870D1*
X2387Y6504D1*
X3657D2*
X4292Y5870D1*
X2387Y6504D2*
X1752Y7138D1*
Y8408D1*
X2387Y9044D1*
X3657D2*
X4292Y8408D1*
Y7138D1*
X3657Y6504D1*
X2387Y3964D2*
X3657D1*
X1752Y4598D2*
X2387Y3964D1*
X3657D2*
X4292Y4598D1*
Y5870D2*
Y4598D1*
X1752Y22378D2*
Y23648D1*
X2387Y24284D1*
X3657D1*
X4292Y23648D1*
X1752Y22378D2*
X2387Y21744D1*
X3657D2*
X4292Y22378D1*
Y23648D2*
Y22378D1*
X5684Y26925D2*
Y29325D1*
X11983D1*
Y26925D1*
X5684D1*
X17850D2*
Y29325D1*
X24150D1*
Y26925D1*
X17850D1*
X4300Y26336D2*
X3665Y26971D1*
X2395D1*
X1760Y26336D1*
Y25066D1*
X2395Y24431D1*
X3665D1*
X4300Y25066D1*
Y26336D1*
X16270Y26155D2*
X15635Y26790D1*
X14365D1*
X13730Y26155D1*
Y24885D1*
X14365Y24250D1*
X15635D1*
X16270Y24885D1*
Y26155D1*
X4380Y3657D2*
X5016Y4292D1*
X6285D1*
X6921Y3657D1*
X7554Y4292D1*
X8826D1*
X9459Y3657D1*
X10095Y4292D1*
X11364D1*
X12000Y3657D1*
X12636Y4292D1*
X13905D1*
X14541Y3657D1*
X15174Y4292D1*
X16446D1*
X17079Y3657D1*
X17715Y4292D1*
X18984D1*
X19620Y3657D1*
Y2387D1*
X18984Y1752D1*
X17715D1*
X17079Y2387D1*
X16446Y1752D1*
X15174D1*
X14541Y2387D1*
X13905Y1752D1*
X12636D1*
X12000Y2387D1*
X11364Y1752D1*
X10095D1*
X9459Y2387D1*
X8826Y1752D1*
X7554D1*
X6921Y2387D1*
X6285Y1752D1*
X5016D1*
X4380Y2387D1*
Y3657D1*
X6921D2*
Y2387D1*
X9459Y3657D2*
Y2387D1*
X12000Y3657D2*
Y2387D1*
X14541Y3657D2*
Y2387D1*
X17079Y3657D2*
Y2387D1*
M02*
