G04 DipTrace 2.4.0.2*
%INTop.gbr*%
%MOMM*%
%ADD13C,0.3*%
%ADD16R,3.0X1.0*%
%ADD17R,1.7X1.7*%
%ADD18C,1.7*%
%FSLAX53Y53*%
G04*
G71*
G90*
G75*
G01*
%LNTop*%
%LPD*%
X1300Y25430D2*
D13*
X1980Y24750D1*
X2333D1*
X5833Y21250D1*
Y20750D1*
X6500D1*
X23500Y7250D2*
X23333D1*
Y7417D1*
X25667D1*
Y14583D1*
X23167D1*
Y14750D1*
X23500D1*
X6500Y10250D2*
X9667D1*
Y18083D1*
Y23917D1*
X22833D1*
X25583Y21167D1*
X25333Y20917D1*
X24500D1*
Y20750D1*
X23500D1*
X6500Y17750D2*
Y18083D1*
X9667D1*
X23500Y14750D2*
X25750D1*
Y21000D1*
X25583Y21167D1*
X6500Y10250D2*
X3900D1*
X1300Y7650D1*
X6500Y17750D2*
X3900D1*
X1300Y20350D1*
Y22890D2*
X3800Y20390D1*
Y20450D1*
X5000Y19250D1*
X6500D1*
X1300Y17810D2*
X2860Y16250D1*
X6500D1*
X1300Y15270D2*
X2600D1*
X3120Y14750D1*
X6500D1*
X1300Y12730D2*
X2600D1*
X3120Y13250D1*
X6500D1*
X1300Y10190D2*
X2860Y11750D1*
X6500D1*
X1300Y5110D2*
X3800Y7610D1*
Y8150D1*
X4400Y8750D1*
X6500D1*
X1300Y2570D2*
X5980Y7250D1*
X6500D1*
D16*
Y20750D3*
Y19250D3*
Y17750D3*
Y16250D3*
Y14750D3*
Y13250D3*
Y11750D3*
Y10250D3*
Y8750D3*
Y7250D3*
G36*
X25000Y20250D2*
X22000D1*
Y21250D1*
X25000D1*
Y20250D1*
G37*
G36*
Y6750D2*
X22000D1*
Y7750D1*
X25000D1*
Y6750D1*
G37*
G36*
Y14250D2*
X22000D1*
Y15250D1*
X25000D1*
Y14250D1*
G37*
D17*
X1300Y2570D3*
D18*
Y5110D3*
Y7650D3*
Y10190D3*
Y12730D3*
Y15270D3*
Y17810D3*
Y20350D3*
Y22890D3*
Y25430D3*
M02*
