G04 DipTrace 2.4.0.2*
%INTopAssy.gbr*%
%MOMM*%
%ADD10C,0.25*%
%ADD12C,0.076*%
%ADD14C,0.127*%
%ADD15C,0.813*%
%FSLAX53Y53*%
G04*
G71*
G90*
G75*
G01*
%LNTopAssy*%
%LPD*%
X7000Y22000D2*
D14*
X23000D1*
Y6000D1*
X7000D1*
Y22000D1*
X15000Y14850D2*
D15*
G02X15000Y14850I500J0D01*
G01*
X-220Y320D2*
D10*
Y27680D1*
X-1193Y11473D2*
D12*
X-682D1*
Y11692D1*
X-707Y11765D1*
X-731Y11789D1*
X-779Y11813D1*
X-852D1*
X-901Y11789D1*
X-925Y11765D1*
X-950Y11692D1*
X-974Y11765D1*
X-998Y11789D1*
X-1047Y11813D1*
X-1096D1*
X-1144Y11789D1*
X-1169Y11765D1*
X-1193Y11692D1*
Y11473D1*
X-950D2*
Y11692D1*
X-1193Y12116D2*
X-1169Y12067D1*
X-1120Y12019D1*
X-1071Y11994D1*
X-998Y11970D1*
X-877D1*
X-804Y11994D1*
X-755Y12019D1*
X-707Y12067D1*
X-682Y12116D1*
Y12213D1*
X-707Y12261D1*
X-755Y12310D1*
X-804Y12334D1*
X-877Y12359D1*
X-998D1*
X-1071Y12334D1*
X-1120Y12310D1*
X-1169Y12261D1*
X-1193Y12213D1*
Y12116D1*
X-682Y12905D2*
X-1193Y12710D1*
X-682Y12515D1*
X-852Y12588D2*
Y12832D1*
X-950Y13061D2*
Y13280D1*
X-974Y13353D1*
X-998Y13378D1*
X-1047Y13402D1*
X-1096D1*
X-1144Y13378D1*
X-1169Y13353D1*
X-1193Y13280D1*
Y13061D1*
X-682D1*
X-950Y13232D2*
X-682Y13402D1*
X-1193Y13559D2*
X-682D1*
Y13729D1*
X-707Y13802D1*
X-755Y13851D1*
X-804Y13875D1*
X-877Y13899D1*
X-998D1*
X-1071Y13875D1*
X-1120Y13851D1*
X-1169Y13802D1*
X-1193Y13729D1*
Y13559D1*
Y14865D2*
Y14550D1*
X-682D1*
Y14865D1*
X-950Y14550D2*
Y14744D1*
X-1193Y15022D2*
X-682D1*
Y15192D1*
X-707Y15265D1*
X-755Y15314D1*
X-804Y15338D1*
X-877Y15362D1*
X-998D1*
X-1071Y15338D1*
X-1120Y15314D1*
X-1169Y15265D1*
X-1193Y15192D1*
Y15022D1*
X-1071Y15884D2*
X-1120Y15859D1*
X-1169Y15811D1*
X-1193Y15762D1*
Y15665D1*
X-1169Y15616D1*
X-1120Y15568D1*
X-1071Y15543D1*
X-998Y15519D1*
X-877D1*
X-804Y15543D1*
X-755Y15568D1*
X-707Y15616D1*
X-682Y15665D1*
Y15762D1*
X-707Y15811D1*
X-755Y15859D1*
X-804Y15884D1*
X-877D1*
Y15762D1*
X-1193Y16356D2*
Y16040D1*
X-682D1*
Y16356D1*
X-950Y16040D2*
Y16235D1*
M02*
