G04 DipTrace 2.4.0.2*
%INBottom.gbr*%
%MOMM*%
%ADD15C,1.27*%
%ADD17C,1.524*%
%FSLAX53Y53*%
G04*
G71*
G90*
G75*
G01*
%LNBottom*%
%LPD*%
D15*
X1970Y33561D3*
X34394Y33409D3*
D17*
X10515Y25720D3*
Y23720D3*
Y21720D3*
Y19720D3*
Y17720D3*
Y15720D3*
Y13720D3*
Y11720D3*
Y9720D3*
Y7720D3*
X32515Y25720D3*
Y23720D3*
Y21720D3*
Y19720D3*
Y17720D3*
Y15720D3*
Y13720D3*
Y11720D3*
Y9720D3*
Y7720D3*
G36*
X3894Y4787D2*
X3611Y4837D1*
X3362Y4981D1*
X3177Y5201D1*
X3078Y5471D1*
Y5759D1*
X3176Y6029D1*
X3361Y6249D1*
X3610Y6393D1*
X3893Y6444D1*
X5549D1*
X5832Y6394D1*
X6081Y6250D1*
X6266Y6030D1*
X6365Y5760D1*
Y5472D1*
X6267Y5202D1*
X6082Y4982D1*
X5833Y4838D1*
X5550Y4787D1*
X3894D1*
G37*
G36*
X4148Y7327D2*
X3865Y7377D1*
X3616Y7521D1*
X3431Y7741D1*
X3332Y8011D1*
Y8299D1*
X3430Y8569D1*
X3615Y8789D1*
X3864Y8933D1*
X4147Y8983D1*
X5803D1*
X6086Y8934D1*
X6335Y8790D1*
X6520Y8570D1*
X6619Y8300D1*
Y8012D1*
X6521Y7742D1*
X6336Y7522D1*
X6087Y7378D1*
X5804Y7327D1*
X4148D1*
G37*
G36*
X3894Y9867D2*
X3611Y9917D1*
X3362Y10061D1*
X3177Y10281D1*
X3078Y10551D1*
Y10839D1*
X3176Y11109D1*
X3361Y11329D1*
X3610Y11473D1*
X3893Y11524D1*
X5549D1*
X5832Y11474D1*
X6081Y11330D1*
X6266Y11110D1*
X6365Y10840D1*
Y10552D1*
X6267Y10282D1*
X6082Y10062D1*
X5833Y9918D1*
X5550Y9867D1*
X3894D1*
G37*
G36*
X4148Y12407D2*
X3865Y12457D1*
X3616Y12601D1*
X3431Y12821D1*
X3332Y13091D1*
Y13379D1*
X3430Y13649D1*
X3615Y13869D1*
X3864Y14013D1*
X4147Y14063D1*
X5803D1*
X6086Y14014D1*
X6335Y13870D1*
X6520Y13650D1*
X6619Y13380D1*
Y13092D1*
X6521Y12822D1*
X6336Y12602D1*
X6087Y12458D1*
X5804Y12407D1*
X4148D1*
G37*
G36*
X3894Y14947D2*
X3611Y14997D1*
X3362Y15141D1*
X3177Y15361D1*
X3078Y15631D1*
Y15919D1*
X3176Y16189D1*
X3361Y16409D1*
X3610Y16553D1*
X3893Y16604D1*
X5549D1*
X5832Y16554D1*
X6081Y16410D1*
X6266Y16190D1*
X6365Y15920D1*
Y15632D1*
X6267Y15362D1*
X6082Y15142D1*
X5833Y14998D1*
X5550Y14947D1*
X3894D1*
G37*
G36*
X4148Y17487D2*
X3865Y17537D1*
X3616Y17681D1*
X3431Y17901D1*
X3332Y18171D1*
Y18459D1*
X3430Y18729D1*
X3615Y18949D1*
X3864Y19093D1*
X4147Y19143D1*
X5803D1*
X6086Y19094D1*
X6335Y18950D1*
X6520Y18730D1*
X6619Y18460D1*
Y18172D1*
X6521Y17902D1*
X6336Y17682D1*
X6087Y17538D1*
X5804Y17487D1*
X4148D1*
G37*
G36*
X3894Y20027D2*
X3611Y20077D1*
X3362Y20221D1*
X3177Y20441D1*
X3078Y20711D1*
Y20999D1*
X3176Y21269D1*
X3361Y21489D1*
X3610Y21633D1*
X3893Y21683D1*
X5549D1*
X5832Y21634D1*
X6081Y21490D1*
X6266Y21270D1*
X6365Y21000D1*
Y20712D1*
X6267Y20442D1*
X6082Y20222D1*
X5833Y20078D1*
X5550Y20027D1*
X3894D1*
G37*
G36*
X4148Y22567D2*
X3865Y22617D1*
X3616Y22761D1*
X3431Y22981D1*
X3332Y23251D1*
Y23539D1*
X3430Y23809D1*
X3615Y24029D1*
X3864Y24173D1*
X4147Y24223D1*
X5803D1*
X6086Y24174D1*
X6335Y24030D1*
X6520Y23810D1*
X6619Y23540D1*
Y23252D1*
X6521Y22982D1*
X6336Y22762D1*
X6087Y22618D1*
X5804Y22567D1*
X4148D1*
G37*
G36*
X3894Y25107D2*
X3611Y25157D1*
X3362Y25301D1*
X3177Y25521D1*
X3078Y25791D1*
Y26079D1*
X3176Y26349D1*
X3361Y26569D1*
X3610Y26713D1*
X3893Y26763D1*
X5549D1*
X5832Y26714D1*
X6081Y26570D1*
X6266Y26350D1*
X6365Y26080D1*
Y25792D1*
X6267Y25522D1*
X6082Y25302D1*
X5833Y25158D1*
X5550Y25107D1*
X3894D1*
G37*
G36*
X4148Y27647D2*
X3865Y27697D1*
X3616Y27841D1*
X3431Y28061D1*
X3332Y28331D1*
Y28619D1*
X3430Y28889D1*
X3615Y29109D1*
X3864Y29253D1*
X4147Y29303D1*
X5803D1*
X6086Y29254D1*
X6335Y29110D1*
X6520Y28890D1*
X6619Y28620D1*
Y28332D1*
X6521Y28062D1*
X6336Y27842D1*
X6087Y27698D1*
X5804Y27647D1*
X4148D1*
G37*
M02*
