G04 DipTrace 2.4.0.2*
%INTop.gbr*%
%MOMM*%
%ADD13C,0.3*%
%ADD14C,0.635*%
%ADD15C,1.27*%
%ADD17C,1.524*%
%FSLAX53Y53*%
G04*
G71*
G90*
G75*
G01*
%LNTop*%
%LPD*%
X4975Y28475D2*
D13*
Y28332D1*
X28091D1*
X30703Y25720D1*
X11491Y6508D1*
X9303D1*
X8703Y7108D1*
Y9952D1*
X8103Y10552D1*
X4721D1*
Y10695D1*
X32515Y25720D2*
X30703D1*
X4975Y13235D2*
Y11973D1*
X3228D1*
X2628Y11373D1*
Y4937D1*
X3228Y4337D1*
X29132D1*
X32515Y7720D1*
X4721Y15775D2*
Y14514D1*
X2265D1*
X1970Y14218D1*
Y4033D1*
X2265Y3737D1*
X33127D1*
X33727Y4337D1*
Y8508D1*
X32515Y9720D1*
Y11720D2*
X34327Y9908D1*
Y3737D1*
X33727Y3137D1*
X1665D1*
X1065Y3737D1*
Y17858D1*
X1665Y18459D1*
X4975D1*
Y18315D1*
X32515Y15720D2*
X34927Y13308D1*
Y3137D1*
X34327Y2537D1*
X1065D1*
X465Y3137D1*
Y20399D1*
X1065Y20998D1*
X4721D1*
Y20855D1*
Y25935D2*
Y26913D1*
X2701D1*
Y29754D1*
X3301Y30353D1*
X33127D1*
X33727Y29754D1*
Y24933D1*
X32515Y23720D1*
X10515Y21720D2*
X9255D1*
X7723Y23252D1*
X4975D1*
Y23395D1*
X3341Y33521D2*
D14*
X33029D1*
X3152Y32889D2*
X33128D1*
X979Y32257D2*
X1805D1*
X2139D2*
X33714D1*
X969Y31626D2*
X34795D1*
X969Y30994D2*
X2718D1*
X33712D2*
X34805D1*
X969Y30362D2*
X2083D1*
X34347D2*
X34805D1*
X969Y29731D2*
X1815D1*
X34615D2*
X34815D1*
X960Y29099D2*
X1815D1*
X28453D2*
X32841D1*
X34615D2*
X34815D1*
X960Y28467D2*
X1815D1*
X29187D2*
X32841D1*
X34615D2*
X34831D1*
X960Y27836D2*
X1815D1*
X29812D2*
X32841D1*
X34615D2*
X34831D1*
X950Y27204D2*
X1815D1*
X6645D2*
X27989D1*
X30447D2*
X32841D1*
X34615D2*
X34831D1*
X950Y26572D2*
X1884D1*
X6962D2*
X9296D1*
X11735D2*
X28624D1*
X31082D2*
X31291D1*
X34615D2*
X34847D1*
X950Y25941D2*
X2341D1*
X7101D2*
X9038D1*
X11993D2*
X29259D1*
X34615D2*
X34847D1*
X950Y25309D2*
X2470D1*
X6972D2*
X9078D1*
X11953D2*
X29060D1*
X34615D2*
X34847D1*
X940Y24677D2*
X3035D1*
X6625D2*
X9385D1*
X11645D2*
X28435D1*
X30884D2*
X31382D1*
X34575D2*
X34852D1*
X940Y24046D2*
X2738D1*
X8004D2*
X9058D1*
X11973D2*
X27800D1*
X30259D2*
X31055D1*
X34069D2*
X34865D1*
X940Y23414D2*
X2599D1*
X8788D2*
X9058D1*
X11983D2*
X27165D1*
X29624D2*
X31055D1*
X33980D2*
X34875D1*
X930Y22782D2*
X2728D1*
X11665D2*
X26540D1*
X28989D2*
X31362D1*
X33662D2*
X34875D1*
X930Y22151D2*
X3095D1*
X6684D2*
X7599D1*
X11943D2*
X25905D1*
X28364D2*
X31084D1*
X33950D2*
X34884D1*
X6952Y21519D2*
X8234D1*
X12003D2*
X25270D1*
X27729D2*
X31035D1*
X33999D2*
X34884D1*
X7101Y20887D2*
X9286D1*
X11745D2*
X24645D1*
X27094D2*
X31283D1*
X33751D2*
X34894D1*
X6982Y20256D2*
X9117D1*
X11913D2*
X24010D1*
X26469D2*
X31124D1*
X33910D2*
X34894D1*
X1347Y19624D2*
X2986D1*
X6575D2*
X9018D1*
X12013D2*
X23375D1*
X25834D2*
X31025D1*
X34009D2*
X34904D1*
X7200Y18992D2*
X9217D1*
X11814D2*
X22750D1*
X25199D2*
X31213D1*
X33811D2*
X34914D1*
X7359Y18361D2*
X9167D1*
X11864D2*
X22115D1*
X24574D2*
X31164D1*
X33861D2*
X34914D1*
X7240Y17729D2*
X9018D1*
X12013D2*
X21480D1*
X23939D2*
X31015D1*
X34009D2*
X34924D1*
X1952Y17097D2*
X3144D1*
X6734D2*
X9157D1*
X11874D2*
X20855D1*
X23304D2*
X31164D1*
X33870D2*
X34924D1*
X1952Y16466D2*
X2499D1*
X6942D2*
X9226D1*
X11804D2*
X20220D1*
X22679D2*
X31223D1*
X33801D2*
X34934D1*
X1952Y15834D2*
X2341D1*
X7101D2*
X9018D1*
X12013D2*
X19585D1*
X22044D2*
X31025D1*
X34009D2*
X34934D1*
X6992Y15202D2*
X9117D1*
X11913D2*
X18960D1*
X21409D2*
X31114D1*
X34257D2*
X34944D1*
X6526Y14571D2*
X9296D1*
X11735D2*
X18325D1*
X20783D2*
X31293D1*
X7191Y13939D2*
X9038D1*
X11993D2*
X17690D1*
X20148D2*
X31035D1*
X7359Y13307D2*
X9078D1*
X11953D2*
X17065D1*
X19513D2*
X31074D1*
X7250Y12676D2*
X9385D1*
X11645D2*
X16430D1*
X18888D2*
X31382D1*
X33652D2*
X34038D1*
X6774Y12044D2*
X9058D1*
X11973D2*
X15795D1*
X18253D2*
X31055D1*
X6933Y11412D2*
X9048D1*
X11983D2*
X15170D1*
X17618D2*
X31055D1*
X9105Y10781D2*
X9376D1*
X11665D2*
X14535D1*
X16993D2*
X31372D1*
X11943Y10149D2*
X13910D1*
X16358D2*
X31084D1*
X6546Y9517D2*
X7818D1*
X12003D2*
X13275D1*
X15723D2*
X31035D1*
X7181Y8886D2*
X7818D1*
X11745D2*
X12640D1*
X15098D2*
X31283D1*
X7359Y8254D2*
X7818D1*
X14463D2*
X31124D1*
X7260Y7622D2*
X7818D1*
X13828D2*
X31025D1*
X6813Y6991D2*
X7828D1*
X13203D2*
X30558D1*
X6913Y6359D2*
X8224D1*
X12568D2*
X29924D1*
X7101Y5727D2*
X8978D1*
X11814D2*
X29298D1*
X31747D2*
X32841D1*
X31112Y5096D2*
X32841D1*
X841Y1306D2*
X35073D1*
X3239Y33246D2*
X3126Y32950D1*
X2946Y32690D1*
X2708Y32481D1*
X2427Y32335D1*
X2119Y32261D1*
X1802Y32263D1*
X1495Y32342D1*
X1216Y32492D1*
X981Y32704D1*
X920Y32794D1*
X866Y21798D1*
X1065Y21821D1*
X2762D1*
X2992Y22052D1*
X3244Y22199D1*
X3101Y22328D1*
X2916Y22548D1*
X2799Y22750D1*
X2700Y23020D1*
X2659Y23250D1*
Y23538D1*
X2699Y23768D1*
X2797Y24038D1*
X2914Y24241D1*
X3099Y24461D1*
X3246Y24592D1*
X3026Y24718D1*
X2847Y24868D1*
X2662Y25088D1*
X2545Y25290D1*
X2446Y25560D1*
X2405Y25790D1*
X2407Y26122D1*
X2127Y26324D1*
X1947Y26583D1*
X1878Y26913D1*
Y29754D1*
X1938Y30063D1*
X2119Y30335D1*
X2719Y30935D1*
X2980Y31112D1*
X3301Y31176D1*
X33127D1*
X33437Y31116D1*
X33709Y30935D1*
X34309Y30335D1*
X34485Y30074D1*
X34550Y29754D1*
Y24933D1*
X34490Y24623D1*
X34309Y24351D1*
X33923Y23965D1*
X33950Y23720D1*
X33915Y23406D1*
X33812Y23106D1*
X33645Y22836D1*
X33541Y22730D1*
X33753Y22446D1*
X33882Y22157D1*
X33950Y21720D1*
X33915Y21406D1*
X33812Y21106D1*
X33645Y20836D1*
X33541Y20730D1*
X33753Y20446D1*
X33882Y20157D1*
X33950Y19720D1*
X33915Y19406D1*
X33812Y19106D1*
X33645Y18836D1*
X33541Y18730D1*
X33753Y18446D1*
X33882Y18157D1*
X33950Y17720D1*
X33915Y17406D1*
X33812Y17106D1*
X33645Y16836D1*
X33541Y16730D1*
X33753Y16446D1*
X33882Y16157D1*
X33950Y15720D1*
X33923Y15474D1*
X35012Y14387D1*
X34851Y32184D1*
X34543Y32110D1*
X34226Y32112D1*
X33919Y32190D1*
X33640Y32340D1*
X33406Y32553D1*
X33229Y32815D1*
X33120Y33113D1*
X33086Y33428D1*
X33129Y33742D1*
X33246Y34036D1*
X33332Y34157D1*
X24039Y34152D1*
X3143Y34138D1*
X3248Y33839D1*
X3278Y33561D1*
X3239Y33246D1*
X11915Y25406D2*
X11812Y25106D1*
X11645Y24836D1*
X11541Y24730D1*
X11753Y24446D1*
X11882Y24157D1*
X11950Y23720D1*
X11915Y23406D1*
X11812Y23106D1*
X11645Y22836D1*
X11541Y22730D1*
X11753Y22446D1*
X11882Y22157D1*
X11950Y21720D1*
X11915Y21406D1*
X11812Y21106D1*
X11645Y20836D1*
X11541Y20730D1*
X11753Y20446D1*
X11882Y20157D1*
X11950Y19720D1*
X11915Y19406D1*
X11812Y19106D1*
X11645Y18836D1*
X11541Y18730D1*
X11753Y18446D1*
X11882Y18157D1*
X11950Y17720D1*
X11915Y17406D1*
X11812Y17106D1*
X11645Y16836D1*
X11541Y16730D1*
X11753Y16446D1*
X11882Y16157D1*
X11950Y15720D1*
X11915Y15406D1*
X11812Y15106D1*
X11645Y14836D1*
X11541Y14730D1*
X11753Y14446D1*
X11882Y14157D1*
X11950Y13720D1*
X11915Y13406D1*
X11812Y13106D1*
X11645Y12836D1*
X11541Y12730D1*
X11753Y12446D1*
X11882Y12157D1*
X11950Y11720D1*
X11915Y11406D1*
X11812Y11106D1*
X11645Y10836D1*
X11541Y10730D1*
X11753Y10446D1*
X11882Y10157D1*
X11950Y9720D1*
X11915Y9406D1*
X11812Y9106D1*
X11645Y8836D1*
X11541Y8730D1*
X11753Y8446D1*
X11900Y8069D1*
X13379Y9560D1*
X29536Y25717D1*
X27757Y27503D1*
X22694Y27509D1*
X6928D1*
X6852Y27409D1*
X6673Y27259D1*
X6453Y27132D1*
X6596Y27003D1*
X6781Y26783D1*
X6898Y26581D1*
X6997Y26311D1*
X7038Y26081D1*
Y25793D1*
X6998Y25563D1*
X6900Y25292D1*
X6783Y25090D1*
X6598Y24869D1*
X6451Y24739D1*
X6671Y24613D1*
X6850Y24463D1*
X7035Y24243D1*
X7138Y24075D1*
X7723D1*
X8032Y24015D1*
X8305Y23834D1*
X9448Y22691D1*
X9425Y22788D1*
X9247Y23050D1*
X9130Y23345D1*
X9082Y23658D1*
X9103Y23974D1*
X9193Y24278D1*
X9347Y24554D1*
X9486Y24709D1*
X9247Y25050D1*
X9130Y25345D1*
X9082Y25658D1*
X9103Y25974D1*
X9193Y26278D1*
X9347Y26554D1*
X9559Y26790D1*
X9817Y26974D1*
X10109Y27097D1*
X10421Y27152D1*
X10737Y27138D1*
X11043Y27055D1*
X11323Y26906D1*
X11564Y26700D1*
X11753Y26446D1*
X11882Y26157D1*
X11950Y25720D1*
X11915Y25406D1*
X9490Y20727D2*
X9352Y20894D1*
X8945Y20958D1*
X8673Y21139D1*
X7375Y22437D1*
X6939Y22429D1*
X6705Y22199D1*
X6453Y22052D1*
X6596Y21923D1*
X6781Y21703D1*
X6898Y21501D1*
X6997Y21231D1*
X7038Y21001D1*
Y20713D1*
X6998Y20483D1*
X6900Y20212D1*
X6783Y20010D1*
X6598Y19790D1*
X6451Y19659D1*
X6671Y19533D1*
X6850Y19383D1*
X7035Y19163D1*
X7152Y18961D1*
X7251Y18691D1*
X7292Y18461D1*
Y18173D1*
X7252Y17943D1*
X7154Y17672D1*
X7037Y17470D1*
X6852Y17250D1*
X6673Y17099D1*
X6453Y16972D1*
X6596Y16843D1*
X6781Y16623D1*
X6898Y16421D1*
X6997Y16151D1*
X7038Y15921D1*
Y15633D1*
X6998Y15403D1*
X6900Y15132D1*
X6783Y14930D1*
X6598Y14710D1*
X6451Y14579D1*
X6671Y14453D1*
X6850Y14303D1*
X7035Y14083D1*
X7152Y13881D1*
X7251Y13611D1*
X7292Y13381D1*
Y13093D1*
X7252Y12863D1*
X7154Y12592D1*
X7037Y12390D1*
X6852Y12169D1*
X6673Y12019D1*
X6453Y11892D1*
X6596Y11763D1*
X6781Y11543D1*
X6884Y11375D1*
X8103D1*
X8413Y11315D1*
X8685Y11134D1*
X9290Y10526D1*
X9347Y10554D1*
X9486Y10709D1*
X9247Y11050D1*
X9130Y11345D1*
X9082Y11658D1*
X9103Y11974D1*
X9193Y12278D1*
X9347Y12554D1*
X9486Y12709D1*
X9247Y13050D1*
X9130Y13345D1*
X9082Y13658D1*
X9103Y13974D1*
X9193Y14278D1*
X9347Y14554D1*
X9486Y14709D1*
X9247Y15050D1*
X9130Y15345D1*
X9082Y15658D1*
X9103Y15974D1*
X9193Y16278D1*
X9347Y16554D1*
X9486Y16709D1*
X9247Y17050D1*
X9130Y17345D1*
X9082Y17658D1*
X9103Y17974D1*
X9193Y18278D1*
X9347Y18554D1*
X9486Y18709D1*
X9247Y19050D1*
X9130Y19345D1*
X9082Y19658D1*
X9103Y19974D1*
X9193Y20278D1*
X9347Y20554D1*
X9486Y20709D1*
X31490Y24727D2*
X31352Y24894D1*
X31037Y24898D1*
X23876Y17730D1*
X12073Y5926D1*
X11811Y5750D1*
X11491Y5686D1*
X9303D1*
X8993Y5746D1*
X8721Y5926D1*
X8121Y6527D1*
X7945Y6788D1*
X7880Y7108D1*
Y9619D1*
X7468Y9729D1*
X6684D1*
X6451Y9499D1*
X6671Y9373D1*
X6850Y9223D1*
X7035Y9003D1*
X7152Y8801D1*
X7251Y8531D1*
X7292Y8301D1*
Y8013D1*
X7252Y7783D1*
X7154Y7512D1*
X7037Y7310D1*
X6852Y7090D1*
X6673Y6939D1*
X6453Y6812D1*
X6596Y6683D1*
X6781Y6463D1*
X6898Y6261D1*
X6997Y5991D1*
X7038Y5761D1*
Y5473D1*
X6998Y5243D1*
X6967Y5158D1*
X28796Y5160D1*
X31097Y7466D1*
X31082Y7658D1*
X31103Y7974D1*
X31193Y8278D1*
X31347Y8554D1*
X31486Y8709D1*
X31247Y9050D1*
X31130Y9345D1*
X31082Y9658D1*
X31103Y9974D1*
X31193Y10278D1*
X31347Y10554D1*
X31486Y10709D1*
X31247Y11050D1*
X31130Y11345D1*
X31082Y11658D1*
X31103Y11974D1*
X31193Y12278D1*
X31347Y12554D1*
X31486Y12709D1*
X31247Y13050D1*
X31130Y13345D1*
X31082Y13658D1*
X31103Y13974D1*
X31193Y14278D1*
X31347Y14554D1*
X31486Y14709D1*
X31247Y15050D1*
X31130Y15345D1*
X31082Y15658D1*
X31103Y15974D1*
X31193Y16278D1*
X31347Y16554D1*
X31486Y16709D1*
X31247Y17050D1*
X31130Y17345D1*
X31082Y17658D1*
X31103Y17974D1*
X31193Y18278D1*
X31347Y18554D1*
X31486Y18709D1*
X31247Y19050D1*
X31130Y19345D1*
X31082Y19658D1*
X31103Y19974D1*
X31193Y20278D1*
X31347Y20554D1*
X31486Y20709D1*
X31247Y21050D1*
X31130Y21345D1*
X31082Y21658D1*
X31103Y21974D1*
X31193Y22278D1*
X31347Y22554D1*
X31486Y22709D1*
X31247Y23050D1*
X31130Y23345D1*
X31082Y23658D1*
X31103Y23974D1*
X31193Y24278D1*
X31347Y24554D1*
X31486Y24709D1*
X31343Y26546D2*
X31559Y26790D1*
X31817Y26974D1*
X32109Y27097D1*
X32421Y27152D1*
X32737Y27138D1*
X32900Y27094D1*
X32904Y29407D1*
X32492Y29531D1*
X6864D1*
X7136Y29161D1*
X8468Y29155D1*
X28091D1*
X28401Y29095D1*
X28673Y28914D1*
X31037Y26550D1*
X31348Y26543D1*
X33854Y13228D2*
X33812Y13106D1*
X33645Y12836D1*
X33541Y12730D1*
X33753Y12446D1*
X33882Y12157D1*
X33950Y11720D1*
X33923Y11474D1*
X34100Y11299D1*
X34104Y12970D1*
X33861Y13211D1*
X32907Y6345D2*
X32547Y6286D1*
X32261Y6311D1*
X30522Y4564D1*
X32795Y4560D1*
X32904Y4972D1*
Y6332D1*
X2405Y15822D2*
X2434Y16113D1*
X2543Y16418D1*
X2660Y16621D1*
X2845Y16841D1*
X3024Y16992D1*
X3244Y17119D1*
X3101Y17248D1*
X2916Y17468D1*
X2813Y17636D1*
X2009D1*
X1888Y17223D1*
Y15249D1*
X2220Y15335D1*
X2474Y15336D1*
X2407Y15593D1*
X2405Y15822D1*
X3018Y19285D2*
X3246Y19512D1*
X3026Y19638D1*
X2847Y19788D1*
X2662Y20008D1*
X2559Y20176D1*
X1398D1*
X1288Y19764D1*
Y19198D1*
X1665Y19281D1*
X3025D1*
X3129Y19413D1*
X2993Y19658D1*
X2850Y19784D1*
X35123Y2170D2*
X34909Y1956D1*
X34647Y1779D1*
X34327Y1715D1*
X1056Y1716D1*
X776Y1766D1*
X773Y1141D1*
X2995Y1151D1*
X35131D1*
X35125Y2170D1*
D15*
X1970Y33561D3*
X34394Y33409D3*
D17*
X10515Y25720D3*
Y23720D3*
Y21720D3*
Y19720D3*
Y17720D3*
Y15720D3*
Y13720D3*
Y11720D3*
Y9720D3*
Y7720D3*
X32515Y25720D3*
Y23720D3*
Y21720D3*
Y19720D3*
Y17720D3*
Y15720D3*
Y13720D3*
Y11720D3*
Y9720D3*
Y7720D3*
G36*
X3894Y4787D2*
X3611Y4837D1*
X3362Y4981D1*
X3177Y5201D1*
X3078Y5471D1*
Y5759D1*
X3176Y6029D1*
X3361Y6249D1*
X3610Y6393D1*
X3893Y6444D1*
X5549D1*
X5832Y6394D1*
X6081Y6250D1*
X6266Y6030D1*
X6365Y5760D1*
Y5472D1*
X6267Y5202D1*
X6082Y4982D1*
X5833Y4838D1*
X5550Y4787D1*
X3894D1*
G37*
G36*
X4148Y7327D2*
X3865Y7377D1*
X3616Y7521D1*
X3431Y7741D1*
X3332Y8011D1*
Y8299D1*
X3430Y8569D1*
X3615Y8789D1*
X3864Y8933D1*
X4147Y8983D1*
X5803D1*
X6086Y8934D1*
X6335Y8790D1*
X6520Y8570D1*
X6619Y8300D1*
Y8012D1*
X6521Y7742D1*
X6336Y7522D1*
X6087Y7378D1*
X5804Y7327D1*
X4148D1*
G37*
G36*
X3894Y9867D2*
X3611Y9917D1*
X3362Y10061D1*
X3177Y10281D1*
X3078Y10551D1*
Y10839D1*
X3176Y11109D1*
X3361Y11329D1*
X3610Y11473D1*
X3893Y11524D1*
X5549D1*
X5832Y11474D1*
X6081Y11330D1*
X6266Y11110D1*
X6365Y10840D1*
Y10552D1*
X6267Y10282D1*
X6082Y10062D1*
X5833Y9918D1*
X5550Y9867D1*
X3894D1*
G37*
G36*
X4148Y12407D2*
X3865Y12457D1*
X3616Y12601D1*
X3431Y12821D1*
X3332Y13091D1*
Y13379D1*
X3430Y13649D1*
X3615Y13869D1*
X3864Y14013D1*
X4147Y14063D1*
X5803D1*
X6086Y14014D1*
X6335Y13870D1*
X6520Y13650D1*
X6619Y13380D1*
Y13092D1*
X6521Y12822D1*
X6336Y12602D1*
X6087Y12458D1*
X5804Y12407D1*
X4148D1*
G37*
G36*
X3894Y14947D2*
X3611Y14997D1*
X3362Y15141D1*
X3177Y15361D1*
X3078Y15631D1*
Y15919D1*
X3176Y16189D1*
X3361Y16409D1*
X3610Y16553D1*
X3893Y16604D1*
X5549D1*
X5832Y16554D1*
X6081Y16410D1*
X6266Y16190D1*
X6365Y15920D1*
Y15632D1*
X6267Y15362D1*
X6082Y15142D1*
X5833Y14998D1*
X5550Y14947D1*
X3894D1*
G37*
G36*
X4148Y17487D2*
X3865Y17537D1*
X3616Y17681D1*
X3431Y17901D1*
X3332Y18171D1*
Y18459D1*
X3430Y18729D1*
X3615Y18949D1*
X3864Y19093D1*
X4147Y19143D1*
X5803D1*
X6086Y19094D1*
X6335Y18950D1*
X6520Y18730D1*
X6619Y18460D1*
Y18172D1*
X6521Y17902D1*
X6336Y17682D1*
X6087Y17538D1*
X5804Y17487D1*
X4148D1*
G37*
G36*
X3894Y20027D2*
X3611Y20077D1*
X3362Y20221D1*
X3177Y20441D1*
X3078Y20711D1*
Y20999D1*
X3176Y21269D1*
X3361Y21489D1*
X3610Y21633D1*
X3893Y21683D1*
X5549D1*
X5832Y21634D1*
X6081Y21490D1*
X6266Y21270D1*
X6365Y21000D1*
Y20712D1*
X6267Y20442D1*
X6082Y20222D1*
X5833Y20078D1*
X5550Y20027D1*
X3894D1*
G37*
G36*
X4148Y22567D2*
X3865Y22617D1*
X3616Y22761D1*
X3431Y22981D1*
X3332Y23251D1*
Y23539D1*
X3430Y23809D1*
X3615Y24029D1*
X3864Y24173D1*
X4147Y24223D1*
X5803D1*
X6086Y24174D1*
X6335Y24030D1*
X6520Y23810D1*
X6619Y23540D1*
Y23252D1*
X6521Y22982D1*
X6336Y22762D1*
X6087Y22618D1*
X5804Y22567D1*
X4148D1*
G37*
G36*
X3894Y25107D2*
X3611Y25157D1*
X3362Y25301D1*
X3177Y25521D1*
X3078Y25791D1*
Y26079D1*
X3176Y26349D1*
X3361Y26569D1*
X3610Y26713D1*
X3893Y26763D1*
X5549D1*
X5832Y26714D1*
X6081Y26570D1*
X6266Y26350D1*
X6365Y26080D1*
Y25792D1*
X6267Y25522D1*
X6082Y25302D1*
X5833Y25158D1*
X5550Y25107D1*
X3894D1*
G37*
G36*
X4148Y27647D2*
X3865Y27697D1*
X3616Y27841D1*
X3431Y28061D1*
X3332Y28331D1*
Y28619D1*
X3430Y28889D1*
X3615Y29109D1*
X3864Y29253D1*
X4147Y29303D1*
X5803D1*
X6086Y29254D1*
X6335Y29110D1*
X6520Y28890D1*
X6619Y28620D1*
Y28332D1*
X6521Y28062D1*
X6336Y27842D1*
X6087Y27698D1*
X5804Y27647D1*
X4148D1*
G37*
M02*
