G04 DipTrace 2.4.0.2*
%INTopMask.gbr*%
%MOMM*%
%ADD16R,3.0X1.0*%
%ADD17C,3.0*%
%FSLAX53Y53*%
G04*
G71*
G90*
G75*
G01*
%LNTopMask*%
%LPD*%
D16*
X8833Y18015D3*
Y16515D3*
Y15015D3*
Y13515D3*
Y12015D3*
Y10515D3*
Y9015D3*
Y7515D3*
Y6015D3*
Y4515D3*
G36*
X27333Y17515D2*
X24333D1*
Y18515D1*
X27333D1*
Y17515D1*
G37*
G36*
Y4015D2*
X24333D1*
Y5015D1*
X27333D1*
Y4015D1*
G37*
D17*
X17833Y12115D3*
G36*
X1179Y3342D2*
X1660Y3823D1*
X2340D1*
X2821Y3342D1*
Y2662D1*
X2340Y2180D1*
X1660D1*
X1179Y2662D1*
Y3342D1*
G37*
G36*
Y5882D2*
X1660Y6363D1*
X2340D1*
X2821Y5882D1*
Y5202D1*
X2340Y4720D1*
X1660D1*
X1179Y5202D1*
Y5882D1*
G37*
G36*
Y8422D2*
X1660Y8903D1*
X2340D1*
X2821Y8422D1*
Y7742D1*
X2340Y7261D1*
X1660D1*
X1179Y7742D1*
Y8422D1*
G37*
G36*
Y10962D2*
X1660Y11443D1*
X2340D1*
X2821Y10962D1*
Y10282D1*
X2340Y9800D1*
X1660D1*
X1179Y10282D1*
Y10962D1*
G37*
G36*
Y13502D2*
X1660Y13983D1*
X2340D1*
X2821Y13502D1*
Y12822D1*
X2340Y12340D1*
X1660D1*
X1179Y12822D1*
Y13502D1*
G37*
G36*
Y16042D2*
X1660Y16523D1*
X2340D1*
X2821Y16042D1*
Y15362D1*
X2340Y14880D1*
X1660D1*
X1179Y15362D1*
Y16042D1*
G37*
G36*
Y18582D2*
X1660Y19063D1*
X2340D1*
X2821Y18582D1*
Y17902D1*
X2340Y17421D1*
X1660D1*
X1179Y17902D1*
Y18582D1*
G37*
G36*
Y21122D2*
X1660Y21603D1*
X2340D1*
X2821Y21122D1*
Y20442D1*
X2340Y19960D1*
X1660D1*
X1179Y20442D1*
Y21122D1*
G37*
G36*
Y23662D2*
X1660Y24143D1*
X2340D1*
X2821Y23662D1*
Y22982D1*
X2340Y22500D1*
X1660D1*
X1179Y22982D1*
Y23662D1*
G37*
G36*
Y26202D2*
X1660Y26683D1*
X2340D1*
X2821Y26202D1*
Y25522D1*
X2340Y25040D1*
X1660D1*
X1179Y25522D1*
Y26202D1*
G37*
M02*
